<svg width="1039" height="875" viewBox="0 0 1039 875" fill="none" xmlns="http://www.w3.org/2000/svg">
<g clip-path="url(#clip0)">
<rect width="1039" height="875" fill="white"/>
<path d="M432 181C507.377 -154.5 348.167 -312.333 304.5 -344.5L329 -365H1149.5L1188.5 889.5V1415L435.5 1476.5C432 1473.17 384.1 1419 220.5 1229C16.0003 991.5 615.5 1321 777 1077.5C906.2 882.7 775.167 710 693.5 648C603 599 377.293 424.5 432 181Z" fill="#51B268"/>
<path d="M766 716V683.5V680.5L786.5 675L909.5 709L965 762L972.5 808.5L949 837C908.667 843.667 825.3 848.3 814.5 813.5C803.7 778.7 777.667 734 766 716Z" fill="#51B268"/>
</g>
<defs>
<clipPath id="clip0">
<rect width="1039" height="875" fill="white"/>
</clipPath>
</defs>
</svg>
