<svg width="233" height="243" viewBox="0 0 233 243" fill="none" xmlns="http://www.w3.org/2000/svg">
<g clip-path="url(#clip0)">
<g opacity="0.9">
<path opacity="0.9" d="M124.328 21.2795C108.597 27.7885 92.7232 34.0729 76.7075 40.1329L75.4357 40.6186C61.2345 46.0716 47.3408 52.7753 36.9997 61.8207C31.368 66.7482 26.7806 72.3795 23.7794 78.8791C16.3339 95.0364 28.8429 107.799 35.0213 121.02C41.2278 134.306 33.2969 148.797 31.6262 164.368C29.1858 187.203 43.3517 211.84 62.8208 226.226C79.7157 238.709 104.687 242.583 126.836 242.386C150.381 242.177 180.222 237.071 200.808 222.268C210.149 215.55 217.998 205.482 218.66 194.766C219.219 185.671 214.791 177.168 212.559 168.387C208.659 152.99 211.585 136.57 217.811 121.02C227.354 97.1928 251.314 73.2571 250.5 48.2069C250.19 38.6828 245.704 29.3066 237.716 21.4931C222.612 6.71777 194.05 -1.21308 168.602 3.71437C153.258 6.67084 138.353 15.4745 124.328 21.2795Z" fill="#F5F6F6"/>
</g>
<path d="M149.567 168.059L153.408 173.402L155.828 174.251C156.726 174.568 157.916 175.994 157.592 176.891C155.926 181.483 150.471 193.902 149.088 195.695C149.088 195.695 147.246 194.16 147.915 192.597C148.584 191.035 149.558 179.275 149.558 179.275L145.89 174.347L149.567 168.059Z" fill="#E3D0E4"/>
<path d="M158.533 176.482C158.533 176.482 156.098 173.629 154.636 173.829C155.435 175.26 155.717 176.923 155.433 178.538C154.711 180.767 152.916 188.034 148.891 186.452C148.201 188.944 147.291 193.94 147.676 196.307C147.676 196.307 148.966 196.608 149.71 195.821C149.71 195.821 152.451 191.999 153.378 190.54L157.989 179.192C158.172 178.296 158.353 177.393 158.533 176.482Z" fill="#1C1C1D"/>
<path d="M162.053 122.503C162.053 122.503 125.548 129.2 120.789 131.654C116.031 134.109 120.055 139.893 126.48 148.663C132.905 157.434 147.014 177.759 147.014 177.759L152.55 171.435L136.706 143.325C136.706 143.325 174.745 144.097 178.495 139.667C182.245 135.237 182.118 129.275 180.199 122.212L162.053 122.503Z" fill="#0F1335"/>
<path d="M132.888 49.0867C129.274 49.0023 120.855 63.7799 144.881 72.0932C153.094 74.9324 168.764 71.4433 172.002 67.1517C172.002 67.1517 158.995 38.8564 145.181 40.2338C133.648 41.3812 132.888 49.0867 132.888 49.0867Z" fill="#101439"/>
<path d="M104.401 111.18L109.85 107.679L117.021 108.789L141.495 103.723L142.323 110.893L117.898 111.609L115.284 112.198C114.522 112.368 113.725 112.256 113.039 111.884L109.772 110.117L104.971 112.878L104.401 111.18Z" fill="#E3D0E4"/>
<path d="M148.699 72.532C143.067 73.2594 145.846 81.6384 143.405 102.313L119.553 106.316L120.843 112.114C120.843 112.114 146.7 111.799 150.644 111.147C154.969 100.435 158.209 71.3048 148.699 72.532Z" fill="#04093E"/>
<path d="M156.428 76.0212L151.435 77.0536C150.449 76.3346 149.627 75.415 149.023 74.3553C148.72 73.8068 148.476 73.228 148.295 72.6283C147.682 70.8215 146.867 69.0898 145.864 67.4662C145.353 67.7196 143.987 68.3039 142.42 67.8838C140.981 67.4967 140.073 66.5323 139.39 65.5022C137.175 62.168 136.56 59.188 136.232 56.363C136.021 54.5515 136.786 53.3807 139.846 52.5336C140.911 52.2718 142.017 52.2185 143.103 52.3764C144.222 52.5055 147.092 52.8457 148.908 54.4882C151.226 56.5999 151.674 60.7836 150.081 64.8124C150.679 65.0189 154.471 66.3915 156.048 70.371C156.742 72.173 156.874 74.1426 156.428 76.0212Z" fill="#E3D0E4"/>
<path d="M180.198 122.208C180.198 122.208 168.295 123.186 162.053 122.51C159.678 103.866 156.891 99.5461 156.891 99.5461C150.466 98.7437 148.589 96.6835 148.589 93.5957C147.514 81.1363 145.853 74.3129 145.853 74.3129C146.7 72.9379 148.302 72.6282 148.302 72.6282C148.302 72.6282 148.926 76.9925 153.404 76.4646C158.235 75.8944 156.048 70.3639 156.048 70.3639C158.629 68.6745 161.372 68.5455 164.214 69.1907C167.056 69.836 169.508 71.6638 171.46 73.8272C176.055 78.9189 176.266 84.2945 177.014 91.1108C177.763 97.9271 176.533 100.522 176.909 108.824C177.169 114.699 179.823 120.748 180.198 122.208Z" fill="#050820"/>
<path d="M123.861 120.112L127.033 114.889C127.442 114.338 128.05 113.97 128.728 113.864L135.174 112.862L162.081 108.324L162.37 115.222L137.051 115.638L134.669 117.144C133.975 117.581 133.136 117.727 132.334 117.55L128.465 116.712L124.696 121.293L123.861 120.112Z" fill="#E3D0E4"/>
<path d="M160.169 73.3415C161.26 70.8614 162.323 69.1344 165.3 69.2423C173.635 69.5427 167.905 81.9129 173.767 105.985C174.363 108.425 174.705 114.95 167.793 115.34C160.88 115.729 141.131 117.872 141.131 117.872L138.431 109.924L162.668 106.571C162.668 106.571 157.348 79.7589 160.169 73.3415Z" fill="#04093E"/>
<path d="M120.937 117.454H50.3797L38.1778 78.3042C37.9394 77.5399 37.8841 76.7303 38.0163 75.9407C38.1485 75.1511 38.4645 74.4036 38.9389 73.7586C39.4133 73.1137 40.0327 72.5893 40.7471 72.2279C41.4615 71.8665 42.2509 71.6781 43.0516 71.678H102.902C103.991 71.6776 105.051 72.0253 105.928 72.6703C106.806 73.3153 107.454 74.2239 107.778 75.2633L120.937 117.454Z" fill="#E2DDE3"/>
<path d="M50.3798 117.456H158.226C158.34 117.456 158.449 117.501 158.529 117.582C158.61 117.663 158.655 117.772 158.655 117.886V121.135C158.655 121.249 158.61 121.359 158.529 121.439C158.449 121.52 158.34 121.565 158.226 121.565H51.3207C51.0718 121.565 50.833 121.466 50.657 121.29C50.481 121.114 50.3821 120.875 50.3821 120.626V117.456H50.3798Z" fill="#C2B7C4"/>
<path d="M50.3798 117.456H120.937V120.898C120.937 121.075 120.867 121.245 120.742 121.37C120.617 121.495 120.448 121.565 120.271 121.565H51.3395C51.0844 121.565 50.8397 121.463 50.6592 121.283C50.4788 121.103 50.3774 120.858 50.3774 120.603V117.456H50.3798Z" fill="#AB9FAE"/>
<path d="M75.6518 89.9846C75.4988 89.9915 75.3466 90.0103 75.1966 90.0409C75.1731 92.3568 73.73 94.2386 71.8739 94.4991C71.8739 94.5178 71.8739 94.5366 71.8739 94.5554C71.8739 97.0848 73.5681 99.1356 75.6565 99.1356C77.7449 99.1356 79.4391 97.0848 79.4391 94.5554C79.4391 92.0259 77.7426 89.9846 75.6518 89.9846Z" fill="#F2F2F2"/>
<path d="M135.819 185.849L136.309 191.427L137.091 193.867C137.377 194.777 136.95 196.584 136.037 196.863C131.365 198.285 118.157 201.376 115.895 201.345C115.895 201.345 116.017 198.952 117.669 198.551C119.321 198.149 129.312 191.868 129.312 191.868L129.267 187.149L135.819 185.849Z" fill="#E3D0E4"/>
<path d="M137.168 198.152C137.168 198.152 137.391 193.597 136.743 192.405C136.743 192.405 135.854 194.897 133.414 196.129C131.196 196.887 124.305 199.81 123.155 195.646C120.747 196.584 116.204 198.858 114.534 200.594C114.534 200.594 115.069 201.805 116.143 201.929C116.143 201.929 120.836 201.826 122.568 201.695L134.894 199.17L137.168 198.152Z" fill="#1C1C1D"/>
<path d="M180.199 122.208C183.446 129.012 189.847 145.069 173.52 146.028C154.725 147.131 131.314 146.936 131.314 146.936L136.84 188.092L128.003 189.77C128.003 189.77 125.626 175.366 122.301 162.552C118.975 149.738 111.6 137.119 121.345 133.597C131.091 130.075 180.199 122.208 180.199 122.208Z" fill="#1E266D"/>
<path d="M129.746 216.47H61.4999C59.2261 216.47 57.2457 215.088 56.3376 212.861C55.8847 211.788 55.7384 210.611 55.9149 209.459C56.0913 208.308 56.5837 207.229 57.3372 206.34L93.0982 164.462L61.3404 127.283C61.0061 126.88 60.8333 126.368 60.8555 125.845C60.8776 125.322 61.093 124.826 61.46 124.453C61.6363 124.277 61.8475 124.139 62.0802 124.049C62.3129 123.959 62.5618 123.919 62.8109 123.931C63.0601 123.943 63.3039 124.008 63.5267 124.12C63.7495 124.232 63.9464 124.389 64.1046 124.582L95.6231 161.491L127.142 124.582C127.3 124.39 127.497 124.232 127.72 124.121C127.942 124.009 128.186 123.944 128.435 123.932C128.684 123.92 128.933 123.96 129.166 124.05C129.398 124.14 129.61 124.277 129.786 124.453C130.153 124.826 130.369 125.322 130.391 125.845C130.413 126.368 130.24 126.88 129.906 127.283L98.1596 164.462L133.921 206.34C134.673 207.229 135.165 208.309 135.341 209.46C135.518 210.611 135.372 211.788 134.92 212.861C134.003 215.088 132.02 216.47 129.746 216.47ZM95.6231 167.43L60.0897 209.041C59.8349 209.341 59.6684 209.706 59.6088 210.095C59.5491 210.484 59.5986 210.882 59.7518 211.244C59.8875 211.599 60.1267 211.906 60.4384 212.123C60.7501 212.341 61.1199 212.46 61.4999 212.465H129.746C130.126 212.46 130.496 212.341 130.808 212.123C131.12 211.906 131.359 211.6 131.494 211.244C131.647 210.882 131.697 210.484 131.637 210.095C131.578 209.706 131.411 209.341 131.156 209.041L95.6231 167.43Z" fill="#1C1C1D"/>
<path d="M156.168 126.328H35.0875C33.6092 126.328 32.4359 125.258 32.4359 123.944C32.4359 122.628 33.6092 121.562 35.0781 121.562H156.159C157.618 121.562 158.803 122.628 158.803 123.944C158.812 125.258 157.627 126.328 156.168 126.328Z" fill="#1E266D"/>
<path d="M188.132 210.149H159.962L166.422 150.102L168.659 150.341L162.468 207.898H185.626L179.455 150.534L181.694 150.292L188.132 210.149Z" fill="#1C1C1D"/>
<path d="M181.644 216.637H153.472L161.025 147.052H174.081L181.644 216.637ZM155.98 214.386H179.136L172.066 149.302H163.05L155.98 214.386Z" fill="#1C1C1D"/>
<path d="M187.205 145.878H151.768V150.742H187.205V145.878Z" fill="#1E266D"/>
<path d="M188.925 150.742H185.532L188.925 132.401H192.318L188.925 150.742Z" fill="#1E266D"/>
<path d="M159.458 71.6944C156.109 72.7151 154.192 71.9572 153.047 71.3448C149.912 69.6648 149.687 64.3572 149.71 62.1C150.069 61.7728 150.322 61.3465 150.438 60.8751C150.532 60.5622 150.532 60.2284 150.438 59.9155C150.297 59.5025 149.858 58.876 149.288 58.9581C148.807 59.0285 148.38 59.5823 148.446 60.2604C147.725 60.5232 141.117 62.7922 135.5 58.8643C135.016 58.5264 129.164 54.6642 129.995 49.1126C130.523 45.5461 131.403 43.2043 135.535 40.7101C140.604 37.6598 145.625 38.8001 150.156 40.5271C159.927 44.2438 160.089 54.1058 170.271 54.575C193.372 55.6427 187.996 70.9365 200.996 74.7401C208.467 76.9269 217.994 78.9917 218.595 91.3198C219.327 106.271 193.006 106.731 185.056 105.035C174.708 102.824 173.323 85.5429 171.19 79.0316C168.548 70.9999 165.911 69.7281 159.458 71.6944Z" fill="#1E266D"/>
<path d="M113.6 39.68V42.5684H93.2108V39.68C93.2108 39.1523 93.4205 38.6462 93.7936 38.273C94.1668 37.8999 94.6729 37.6902 95.2007 37.6902H111.626C112.151 37.6946 112.653 37.9061 113.023 38.2788C113.392 38.6515 113.6 39.1551 113.6 39.68Z" fill="#3751FF"/>
<path d="M102.193 39.4079C102.342 39.4083 102.488 39.453 102.611 39.5361C102.735 39.6193 102.831 39.7372 102.888 39.875C102.944 40.0128 102.959 40.1643 102.929 40.3103C102.9 40.4563 102.827 40.5903 102.722 40.6953C102.616 40.8003 102.482 40.8716 102.336 40.9002C102.189 40.9288 102.038 40.9135 101.9 40.856C101.763 40.7986 101.646 40.7017 101.563 40.5776C101.481 40.4534 101.437 40.3077 101.438 40.1587C101.437 40.0596 101.457 39.9615 101.495 39.8699C101.533 39.7784 101.588 39.6953 101.659 39.6254C101.729 39.5556 101.812 39.5004 101.904 39.463C101.996 39.4257 102.094 39.4069 102.193 39.4079Z" fill="#E2DDE3"/>
<path d="M113.6 42.5685V53.6107C113.6 54.1384 113.39 54.6445 113.017 55.0176C112.644 55.3908 112.138 55.6004 111.61 55.6004H95.1842C94.6564 55.6004 94.1503 55.3908 93.7771 55.0176C93.404 54.6445 93.1943 54.1384 93.1943 53.6107V42.5685H113.6Z" fill="#E2DDE3"/>
<path d="M98.8073 39.3961C98.9816 39.3967 99.1503 39.4577 99.2846 39.5687C99.419 39.6797 99.5107 39.8339 99.5441 40.005C99.5775 40.1761 99.5505 40.3534 99.4678 40.5068C99.385 40.6602 99.2517 40.7802 99.0904 40.8463C98.9291 40.9123 98.7499 40.9204 98.5833 40.8692C98.4167 40.8179 98.2731 40.7105 98.1768 40.5651C98.0806 40.4198 98.0378 40.2456 98.0556 40.0722C98.0734 39.8989 98.1508 39.737 98.2746 39.6143C98.4164 39.4742 98.6079 39.3957 98.8073 39.3961Z" fill="#E2DDE3"/>
<path d="M95.4237 39.3797C95.5731 39.3802 95.7191 39.4249 95.8431 39.5083C95.9671 39.5917 96.0636 39.71 96.1203 39.8483C96.1771 39.9865 96.1916 40.1385 96.162 40.2849C96.1324 40.4314 96.06 40.5658 95.954 40.6711C95.848 40.7765 95.7131 40.848 95.5664 40.8767C95.4197 40.9054 95.2679 40.89 95.13 40.8324C94.9921 40.7748 94.8743 40.6775 94.7917 40.553C94.7091 40.4285 94.6652 40.2823 94.6657 40.1329C94.6669 39.9327 94.7473 39.7411 94.8893 39.6C95.0313 39.4589 95.2234 39.3797 95.4237 39.3797Z" fill="#E2DDE3"/>
<path d="M101.189 50.8771C101.103 50.8796 101.02 50.8503 100.954 50.7949L98.7016 48.8756C98.6632 48.8429 98.6325 48.8022 98.6114 48.7564C98.5903 48.7106 98.5795 48.6608 98.5796 48.6104C98.5799 48.5601 98.591 48.5104 98.612 48.4647C98.6331 48.419 98.6636 48.3783 98.7016 48.3453L100.954 46.4188C101.025 46.3591 101.116 46.3297 101.208 46.3372C101.3 46.3447 101.385 46.3884 101.445 46.4587C101.504 46.529 101.534 46.6202 101.526 46.7122C101.519 46.8042 101.475 46.8894 101.405 46.9491L99.4642 48.5916L101.407 50.2341C101.462 50.2806 101.501 50.3431 101.519 50.4129C101.537 50.4827 101.533 50.5564 101.507 50.6237C101.482 50.691 101.435 50.7486 101.375 50.7885C101.315 50.8285 101.245 50.8488 101.172 50.8466L101.189 50.8771Z" fill="#AA9EAD"/>
<path d="M105.626 50.8771C105.554 50.8793 105.483 50.859 105.423 50.8191C105.363 50.7792 105.317 50.7216 105.291 50.6543C105.266 50.587 105.261 50.5133 105.279 50.4435C105.297 50.3737 105.337 50.3112 105.392 50.2647L107.332 48.6222L105.392 46.9798C105.357 46.9502 105.328 46.914 105.307 46.8734C105.286 46.8327 105.274 46.7883 105.27 46.7428C105.266 46.6973 105.272 46.6515 105.286 46.608C105.3 46.5645 105.322 46.5242 105.352 46.4894C105.381 46.4545 105.417 46.4259 105.458 46.405C105.499 46.3842 105.543 46.3715 105.589 46.3678C105.634 46.3641 105.68 46.3694 105.724 46.3834C105.767 46.3974 105.807 46.4199 105.842 46.4495L108.095 48.3665C108.133 48.3995 108.163 48.4402 108.184 48.4859C108.205 48.5316 108.216 48.5813 108.217 48.6316C108.217 48.682 108.206 48.7318 108.185 48.7776C108.164 48.8234 108.133 48.8641 108.095 48.8968L105.842 50.8161C105.779 50.8598 105.703 50.8812 105.626 50.8771Z" fill="#AA9EAD"/>
<path d="M102.597 52.3178C102.545 52.3179 102.494 52.3063 102.447 52.284C102.401 52.2617 102.359 52.2291 102.327 52.1887C102.295 52.1484 102.272 52.1014 102.259 52.0511C102.247 52.0008 102.246 51.9484 102.257 51.8977L103.665 45.2292C103.688 45.143 103.744 45.0691 103.82 45.0226C103.896 44.9761 103.987 44.9606 104.075 44.9792C104.162 44.9978 104.239 45.0491 104.29 45.1227C104.34 45.1962 104.361 45.2864 104.347 45.3747L102.939 52.0409C102.923 52.1193 102.88 52.1896 102.817 52.2401C102.755 52.2905 102.677 52.3179 102.597 52.3178Z" fill="#AA9EAD"/>
<path d="M152.059 2.59512V6.3658H125.45V2.59512C125.45 1.90685 125.723 1.24677 126.21 0.760094C126.696 0.273414 127.357 0 128.045 0H149.461C150.15 -2.80911e-07 150.81 0.273339 151.297 0.759952C151.784 1.24656 152.058 1.90664 152.059 2.59512Z" fill="#3751FF"/>
<path d="M137.177 2.23848C137.372 2.23941 137.562 2.29797 137.723 2.40678C137.884 2.51558 138.009 2.66972 138.083 2.84972C138.156 3.02972 138.175 3.22749 138.136 3.41801C138.097 3.60854 138.003 3.78327 137.865 3.92011C137.726 4.05694 137.551 4.14974 137.36 4.18676C137.169 4.22379 136.971 4.20338 136.792 4.12811C136.613 4.05284 136.46 3.9261 136.353 3.76391C136.245 3.60172 136.189 3.41137 136.19 3.21693C136.19 3.08782 136.216 2.96009 136.266 2.84105C136.316 2.722 136.389 2.61397 136.481 2.52311C136.573 2.43225 136.681 2.36035 136.801 2.31151C136.92 2.26268 137.048 2.23786 137.177 2.23848Z" fill="#E2DDE3"/>
<path d="M152.059 6.36578V20.7704C152.059 21.1115 151.992 21.4492 151.861 21.7644C151.731 22.0795 151.539 22.3658 151.298 22.607C151.057 22.8482 150.771 23.0396 150.455 23.1701C150.14 23.3006 149.803 23.3678 149.461 23.3678H128.045C127.356 23.3672 126.696 23.0933 126.21 22.6062C125.723 22.1192 125.45 21.4588 125.45 20.7704V6.36578H152.059Z" fill="#E2DDE3"/>
<path d="M132.759 2.22442C132.987 2.2266 133.207 2.30758 133.382 2.45359C133.556 2.59961 133.675 2.80164 133.718 3.02535C133.761 3.24906 133.724 3.48063 133.616 3.6807C133.507 3.88076 133.332 4.03697 133.121 4.12276C132.91 4.20855 132.676 4.21862 132.458 4.15128C132.241 4.08393 132.053 3.94332 131.928 3.75334C131.802 3.56337 131.746 3.33576 131.769 3.10922C131.793 2.88267 131.894 2.67117 132.055 2.51068C132.148 2.41865 132.258 2.34594 132.378 2.29679C132.499 2.24764 132.629 2.22304 132.759 2.22442Z" fill="#E2DDE3"/>
<path d="M128.343 2.21031C128.569 2.21293 128.788 2.29384 128.962 2.43931C129.135 2.58478 129.253 2.78585 129.295 3.00837C129.337 3.23089 129.301 3.46115 129.193 3.66006C129.085 3.85897 128.911 4.01426 128.701 4.09958C128.491 4.1849 128.258 4.19498 128.042 4.12811C127.826 4.06125 127.639 3.92155 127.514 3.73275C127.389 3.54394 127.333 3.31767 127.356 3.09233C127.378 2.867 127.479 2.6565 127.639 2.49657C127.731 2.40411 127.841 2.33112 127.962 2.28194C128.083 2.23276 128.212 2.2084 128.343 2.21031Z" fill="#E2DDE3"/>
<path d="M135.852 17.2062C135.743 17.2046 135.639 17.1657 135.556 17.0959L132.618 14.5946C132.569 14.5512 132.529 14.4978 132.502 14.438C132.474 14.3781 132.459 14.3132 132.459 14.2474C132.459 14.1817 132.473 14.1169 132.501 14.0574C132.528 13.9978 132.568 13.9449 132.618 13.9024L135.556 11.3988C135.602 11.36 135.656 11.3307 135.713 11.3125C135.771 11.2943 135.831 11.2876 135.892 11.2929C135.952 11.2981 136.01 11.3151 136.064 11.343C136.117 11.3708 136.165 11.4089 136.204 11.4551C136.243 11.5014 136.272 11.5548 136.29 11.6123C136.308 11.6699 136.315 11.7305 136.31 11.7906C136.304 11.8507 136.287 11.9093 136.26 11.9628C136.232 12.0164 136.194 12.0639 136.147 12.1028L133.613 14.2591L136.147 16.4178C136.218 16.4783 136.268 16.5589 136.291 16.6488C136.314 16.7386 136.31 16.8334 136.277 16.9205C136.245 17.0075 136.187 17.0827 136.111 17.1358C136.035 17.189 135.945 17.2176 135.852 17.2179V17.2062Z" fill="#AA9EAD"/>
<path d="M141.655 17.2062C141.561 17.2067 141.47 17.1785 141.394 17.1253C141.317 17.0722 141.259 16.9967 141.227 16.9092C141.195 16.8217 141.19 16.7264 141.215 16.6363C141.239 16.5463 141.29 16.4659 141.361 16.406L143.896 14.2474L141.361 12.091C141.268 12.0129 141.209 11.9009 141.199 11.7797C141.188 11.6585 141.226 11.5379 141.304 11.4446C141.382 11.3512 141.494 11.2927 141.615 11.282C141.736 11.2712 141.857 11.309 141.95 11.3871L144.888 13.8907C144.938 13.9332 144.978 13.9861 145.006 14.0456C145.033 14.1052 145.048 14.17 145.048 14.2356C145.047 14.3015 145.032 14.3664 145.005 14.4262C144.977 14.4861 144.938 14.5394 144.888 14.5829L141.95 17.0888C141.868 17.1612 141.764 17.2027 141.655 17.2062Z" fill="#AA9EAD"/>
<path d="M137.712 19.0833C137.646 19.0809 137.58 19.0643 137.52 19.0344C137.46 19.0045 137.407 18.9621 137.365 18.9101C137.323 18.8581 137.292 18.7977 137.275 18.7328C137.258 18.668 137.255 18.6003 137.267 18.5343L139.099 9.83613C139.109 9.77483 139.13 9.71607 139.163 9.66346C139.196 9.61085 139.239 9.56549 139.29 9.53017C139.341 9.49484 139.399 9.47029 139.459 9.45803C139.52 9.44577 139.583 9.44605 139.643 9.45885C139.704 9.47165 139.761 9.49671 139.812 9.53249C139.863 9.56827 139.905 9.61401 139.938 9.66691C139.97 9.71981 139.991 9.77876 140 9.84013C140.009 9.90151 140.005 9.96402 139.989 10.0238L138.156 18.7313C138.133 18.8317 138.077 18.9212 137.996 18.9852C137.915 19.0491 137.815 19.0838 137.712 19.0833Z" fill="#AA9EAD"/>
<path d="M100.659 9.40673V12.0652H81.9006V9.40673C81.9006 8.92134 82.0935 8.45582 82.4367 8.11259C82.78 7.76936 83.2455 7.57654 83.7309 7.57654H98.8284C99.3138 7.57654 99.7794 7.76936 100.123 8.11259C100.466 8.45582 100.659 8.92134 100.659 9.40673Z" fill="#3751FF"/>
<path d="M90.1603 9.15564C90.2995 9.15564 90.4356 9.19692 90.5514 9.27427C90.6671 9.35162 90.7574 9.46156 90.8106 9.59018C90.8639 9.71881 90.8779 9.86034 90.8507 9.99689C90.8235 10.1334 90.7565 10.2589 90.658 10.3573C90.5596 10.4558 90.4342 10.5228 90.2976 10.55C90.1611 10.5771 90.0196 10.5632 89.891 10.5099C89.7623 10.4566 89.6524 10.3664 89.575 10.2506C89.4977 10.1349 89.4564 9.99878 89.4564 9.85956C89.4564 9.67287 89.5306 9.49382 89.6626 9.36181C89.7946 9.2298 89.9736 9.15564 90.1603 9.15564Z" fill="#E2DDE3"/>
<path d="M100.659 12.0652V22.2205C100.659 22.7059 100.466 23.1714 100.123 23.5146C99.7794 23.8579 99.3138 24.0507 98.8284 24.0507H83.7309C83.2455 24.0507 82.78 23.8579 82.4367 23.5146C82.0935 23.1714 81.9006 22.7059 81.9006 22.2205V12.0652H100.659Z" fill="#E2DDE3"/>
<path d="M87.0559 9.1463C87.219 9.14617 87.3771 9.20271 87.5032 9.30625C87.6293 9.4098 87.7155 9.55393 87.7471 9.71399C87.7786 9.87406 87.7536 10.0401 87.6763 10.1838C87.599 10.3275 87.4742 10.4398 87.3232 10.5016C87.1722 10.5635 87.0045 10.5709 86.8486 10.5228C86.6927 10.4746 86.5584 10.3738 86.4687 10.2375C86.3789 10.1013 86.3392 9.93812 86.3565 9.77588C86.3737 9.61364 86.4468 9.46243 86.5631 9.34809C86.6946 9.21891 86.8715 9.14645 87.0559 9.1463Z" fill="#E2DDE3"/>
<path d="M83.9397 9.13687C84.1029 9.13619 84.2614 9.19227 84.3878 9.29552C84.5143 9.39876 84.6009 9.54275 84.6329 9.70283C84.6649 9.86291 84.6403 10.0291 84.5632 10.1731C84.4862 10.317 84.3615 10.4296 84.2105 10.4918C84.0595 10.5539 83.8916 10.5616 83.7356 10.5136C83.5796 10.4656 83.4451 10.3648 83.3551 10.2286C83.2652 10.0924 83.2254 9.92909 83.2426 9.76675C83.2597 9.6044 83.3328 9.45308 83.4493 9.33867C83.5133 9.27392 83.5898 9.22269 83.674 9.18803C83.7582 9.15337 83.8486 9.13597 83.9397 9.13687Z" fill="#E2DDE3"/>
<path d="M89.2335 19.7074C89.1576 19.7068 89.0845 19.6794 89.027 19.63L86.9549 17.8655C86.9206 17.8366 86.8928 17.8007 86.8734 17.7603C86.854 17.7198 86.8434 17.6757 86.8423 17.6309C86.8428 17.5859 86.8531 17.5416 86.8725 17.501C86.892 17.4605 86.9201 17.4247 86.9549 17.3962L89.027 15.6294C89.0925 15.5821 89.1734 15.5613 89.2536 15.571C89.3338 15.5807 89.4075 15.6203 89.4598 15.6818C89.5122 15.7433 89.5395 15.8223 89.5362 15.903C89.533 15.9838 89.4994 16.0603 89.4423 16.1174L87.6565 17.6379L89.4423 19.1607C89.4926 19.2031 89.5285 19.2599 89.5453 19.3234C89.562 19.387 89.5587 19.4541 89.5359 19.5157C89.513 19.5773 89.4717 19.6304 89.4176 19.6676C89.3635 19.7049 89.2992 19.7245 89.2335 19.7239V19.7074Z" fill="#AA9EAD"/>
<path d="M93.3258 19.7074C93.26 19.7081 93.1957 19.6885 93.1416 19.6512C93.0875 19.614 93.0462 19.5609 93.0233 19.4993C93.0005 19.4377 92.9972 19.3705 93.014 19.307C93.0307 19.2435 93.0667 19.1866 93.1169 19.1443L94.9026 17.6215L93.1169 16.101C93.0598 16.0439 93.0263 15.9674 93.023 15.8866C93.0198 15.8059 93.047 15.7269 93.0994 15.6654C93.1518 15.6038 93.2254 15.5643 93.3056 15.5546C93.3858 15.5449 93.4667 15.5657 93.5322 15.613L95.6041 17.3798C95.6389 17.4083 95.6671 17.4441 95.6865 17.4846C95.706 17.5252 95.7163 17.5695 95.7168 17.6145C95.7157 17.6593 95.7051 17.7034 95.6857 17.7439C95.6663 17.7843 95.6385 17.8202 95.6041 17.8491L93.5322 19.6136C93.4774 19.6693 93.4038 19.7027 93.3258 19.7074Z" fill="#AA9EAD"/>
<path d="M90.5475 21.0308C90.4998 21.0315 90.4526 21.0214 90.4095 21.001C90.3664 20.9807 90.3285 20.9507 90.2988 20.9135C90.2682 20.8764 90.2464 20.8328 90.235 20.7861C90.2236 20.7394 90.223 20.6907 90.2331 20.6436L91.5236 14.5078C91.5437 14.4267 91.5947 14.3568 91.6658 14.3129C91.7369 14.269 91.8223 14.2548 91.9038 14.2732C91.9449 14.2815 91.984 14.298 92.0187 14.3216C92.0534 14.3451 92.083 14.3754 92.106 14.4105C92.1289 14.4457 92.1446 14.485 92.1522 14.5263C92.1598 14.5676 92.1591 14.6099 92.1502 14.6509L90.8643 20.7774C90.849 20.8498 90.8091 20.9147 90.7513 20.9609C90.6935 21.0071 90.6215 21.0318 90.5475 21.0308Z" fill="#AA9EAD"/>
</g>
<defs>
<clipPath id="clip0">
<rect width="233" height="242.395" fill="white"/>
</clipPath>
</defs>
</svg>
