<svg width="117" height="37" viewBox="0 0 117 37" fill="none" xmlns="http://www.w3.org/2000/svg">
<path d="M48.8632 8.95256L48.1293 11.326H50.5808L49.8469 8.95256C49.8053 8.85887 49.7585 8.79121 49.7064 8.74957C49.6648 8.70793 49.6127 8.68711 49.5503 8.68711H49.1599C49.0974 8.68711 49.0402 8.70793 48.9881 8.74957C48.9465 8.79121 48.9049 8.85887 48.8632 8.95256ZM47.9732 16.3539C47.9732 16.5517 47.9263 16.6974 47.8327 16.7911C47.7494 16.8744 47.6089 16.916 47.4111 16.916H45.1157C44.9179 16.916 44.7722 16.8744 44.6785 16.7911C44.5952 16.6974 44.5536 16.5517 44.5536 16.3539V12.2316C44.5536 11.9193 44.6004 11.5602 44.6941 11.1542C44.7982 10.7482 44.9544 10.2746 45.1626 9.73329L46.521 6.18877C46.5835 6.01181 46.6772 5.88168 46.8021 5.79841C46.9374 5.71513 47.1092 5.67349 47.3174 5.67349H51.5177C51.7155 5.67349 51.8768 5.71513 52.0018 5.79841C52.1371 5.88168 52.236 6.01181 52.2984 6.18877L53.6569 9.73329C53.8651 10.2746 54.0161 10.7482 54.1097 11.1542C54.2138 11.5602 54.2659 11.9193 54.2659 12.2316V16.3539C54.2659 16.5517 54.219 16.6974 54.1254 16.7911C54.0421 16.8744 53.9015 16.916 53.7038 16.916H51.346C51.1378 16.916 50.9816 16.8744 50.8775 16.7911C50.7838 16.6974 50.737 16.5517 50.737 16.3539V14.1678H47.9732V16.3539ZM59.0983 16.916H56.7561C56.5583 16.916 56.4126 16.8744 56.3189 16.7911C56.2356 16.6974 56.194 16.5517 56.194 16.3539V6.23562C56.194 6.03783 56.2356 5.8973 56.3189 5.81402C56.4126 5.72033 56.5583 5.67349 56.7561 5.67349H58.38C58.5778 5.67349 58.7444 5.70472 58.8797 5.76718C59.0254 5.82964 59.166 5.93894 59.3013 6.09508L62.3305 9.56153V6.23562C62.3305 6.03783 62.3722 5.8973 62.4554 5.81402C62.5491 5.72033 62.6949 5.67349 62.8926 5.67349H65.2348C65.4326 5.67349 65.5732 5.72033 65.6564 5.81402C65.7501 5.8973 65.797 6.03783 65.797 6.23562V16.3539C65.797 16.5517 65.7501 16.6974 65.6564 16.7911C65.5732 16.8744 65.4326 16.916 65.2348 16.916H62.8926C62.6949 16.916 62.5491 16.8744 62.4554 16.7911C62.3722 16.6974 62.3305 16.5517 62.3305 16.3539V14.4333L59.6604 11.2011V16.3539C59.6604 16.5517 59.6136 16.6974 59.5199 16.7911C59.4366 16.8744 59.2961 16.916 59.0983 16.916ZM77.4754 13.9649C77.4754 14.4437 77.4025 14.8809 77.2568 15.2765C77.1215 15.6616 76.8716 15.9948 76.5073 16.2758C76.1534 16.5465 75.6589 16.7599 75.0239 16.916C74.3993 17.0722 73.603 17.1502 72.6349 17.1502C71.6668 17.1502 70.8652 17.0722 70.2302 16.916C69.5952 16.7599 69.0956 16.5465 68.7312 16.2758C68.3773 15.9948 68.1274 15.6616 67.9817 15.2765C67.8464 14.8809 67.7787 14.4437 67.7787 13.9649V8.64027C67.7787 8.16142 67.8464 7.72942 67.9817 7.34426C68.1274 6.94868 68.3773 6.61037 68.7312 6.3293C69.0956 6.04824 69.5952 5.82964 70.2302 5.67349C70.8652 5.51734 71.6668 5.43927 72.6349 5.43927C73.603 5.43927 74.3993 5.51734 75.0239 5.67349C75.6589 5.82964 76.1534 6.04824 76.5073 6.3293C76.8716 6.61037 77.1215 6.94868 77.2568 7.34426C77.4025 7.72942 77.4754 8.16142 77.4754 8.64027V13.9649ZM71.3232 13.4027C71.3232 13.6109 71.4013 13.7879 71.5575 13.9336C71.7136 14.069 72.0727 14.1366 72.6349 14.1366C73.197 14.1366 73.5561 14.069 73.7123 13.9336C73.8684 13.7879 73.9465 13.6109 73.9465 13.4027V9.2024C73.9465 9.00461 73.8684 8.83806 73.7123 8.70273C73.5561 8.55699 73.197 8.48412 72.6349 8.48412C72.0727 8.48412 71.7136 8.55699 71.5575 8.70273C71.4013 8.83806 71.3232 9.00461 71.3232 9.2024V13.4027ZM82.9923 8.48412V10.4828H84.1634C84.434 10.4828 84.6162 10.4151 84.7099 10.2798C84.8036 10.1341 84.8504 9.9571 84.8504 9.74891V9.21801C84.8504 9.00982 84.8036 8.83806 84.7099 8.70273C84.6162 8.55699 84.434 8.48412 84.1634 8.48412H82.9923ZM82.4301 16.916H80.0255C79.8277 16.916 79.6819 16.8744 79.5883 16.7911C79.505 16.6974 79.4633 16.5517 79.4633 16.3539V6.23562C79.4633 6.03783 79.505 5.8973 79.5883 5.81402C79.6819 5.72033 79.8277 5.67349 80.0255 5.67349H85.2251C86.391 5.67349 87.1926 5.91812 87.6298 6.40738C88.0774 6.88623 88.3012 7.51081 88.3012 8.28113V8.99941C88.3012 9.43662 88.2336 9.81137 88.0982 10.1237C87.9733 10.4255 87.7495 10.6441 87.4268 10.7795C87.9889 10.8419 88.4418 11.0709 88.7853 11.4665C89.1392 11.8621 89.3162 12.3878 89.3162 13.0436V16.3539C89.3162 16.5517 89.2693 16.6974 89.1756 16.7911C89.0924 16.8744 88.9518 16.916 88.7541 16.916H86.3338C86.136 16.916 85.9903 16.8744 85.8966 16.7911C85.8133 16.6974 85.7717 16.5517 85.7717 16.3539V13.9649C85.7717 13.7358 85.7248 13.5693 85.6311 13.4652C85.5478 13.3507 85.3969 13.2934 85.1783 13.2934H82.9923V16.3539C82.9923 16.5517 82.9454 16.6974 82.8517 16.7911C82.7684 16.8744 82.6279 16.916 82.4301 16.916Z" fill="#FF0000"/>
<path d="M49.0369 32.8558H44.1027C43.9049 32.8558 43.7591 32.8141 43.6654 32.7308C43.5822 32.6371 43.5405 32.4914 43.5405 32.2936V30.4667C43.5405 30.2689 43.5822 30.1284 43.6654 30.0451C43.7591 29.9514 43.9049 29.9046 44.1027 29.9046H48.303C48.4383 29.9046 48.5372 29.8629 48.5997 29.7797C48.6725 29.686 48.709 29.5767 48.709 29.4518C48.709 29.2748 48.6725 29.1447 48.5997 29.0614C48.5372 28.9781 48.4383 28.9313 48.303 28.9209L45.9608 28.593C45.2321 28.4889 44.644 28.2494 44.1963 27.8747C43.7591 27.4999 43.5405 26.8753 43.5405 26.0009V24.3614C43.5405 23.4766 43.8268 22.7999 44.3993 22.3315C44.9719 21.8526 45.763 21.6132 46.7728 21.6132H51.1449C51.3426 21.6132 51.4832 21.6601 51.5665 21.7538C51.6601 21.837 51.707 21.9776 51.707 22.1753V24.0335C51.707 24.2313 51.6601 24.377 51.5665 24.4707C51.4832 24.554 51.3426 24.5956 51.1449 24.5956H47.5066C47.3713 24.5956 47.2672 24.6425 47.1944 24.7361C47.1215 24.8194 47.0851 24.9287 47.0851 25.0641C47.0851 25.1994 47.1215 25.3139 47.1944 25.4076C47.2672 25.5013 47.3713 25.5533 47.5066 25.5637L49.8332 25.876C50.5619 25.9801 51.1501 26.2195 51.5977 26.5943C52.0453 26.969 52.2691 27.5936 52.2691 28.468V30.1076C52.2691 30.9924 51.9776 31.6742 51.3947 32.1531C50.8222 32.6215 50.0362 32.8558 49.0369 32.8558ZM59.5241 32.8558H56.9945C56.7967 32.8558 56.651 32.8141 56.5573 32.7308C56.474 32.6371 56.4324 32.4914 56.4324 32.2936V30.295L54.0433 27.094C53.8039 26.7713 53.6425 26.4902 53.5593 26.2508C53.4864 26.0113 53.45 25.6522 53.45 25.1734V22.1753C53.45 21.9776 53.4916 21.837 53.5749 21.7538C53.6686 21.6601 53.8143 21.6132 54.0121 21.6132H56.4167C56.6145 21.6132 56.7551 21.6601 56.8383 21.7538C56.932 21.837 56.9789 21.9776 56.9789 22.1753V24.7361C56.9789 24.8402 56.9841 24.9495 56.9945 25.0641C57.0049 25.1786 57.0465 25.2879 57.1194 25.392L57.8377 26.5162C57.8897 26.6099 57.9418 26.6776 57.9938 26.7192C58.0563 26.7608 58.1291 26.7817 58.2124 26.7817H58.3686C58.4518 26.7817 58.5195 26.7608 58.5716 26.7192C58.634 26.6776 58.6913 26.6099 58.7433 26.5162L59.4616 25.392C59.5345 25.2879 59.5761 25.1786 59.5865 25.0641C59.5969 24.9495 59.6021 24.8402 59.6021 24.7361V22.1753C59.6021 21.9776 59.6438 21.837 59.727 21.7538C59.8207 21.6601 59.9665 21.6132 60.1643 21.6132H62.4908C62.6886 21.6132 62.8291 21.6601 62.9124 21.7538C63.0061 21.837 63.053 21.9776 63.053 22.1753V25.1734C63.053 25.6522 63.0113 26.0113 62.928 26.2508C62.8448 26.4902 62.6886 26.7713 62.4596 27.094L60.0862 30.3106V32.2936C60.0862 32.4914 60.0393 32.6371 59.9457 32.7308C59.8624 32.8141 59.7218 32.8558 59.5241 32.8558ZM70.0496 32.8558H65.1154C64.9176 32.8558 64.7719 32.8141 64.6782 32.7308C64.5949 32.6371 64.5533 32.4914 64.5533 32.2936V30.4667C64.5533 30.2689 64.5949 30.1284 64.6782 30.0451C64.7719 29.9514 64.9176 29.9046 65.1154 29.9046H69.3157C69.4511 29.9046 69.5499 29.8629 69.6124 29.7797C69.6853 29.686 69.7217 29.5767 69.7217 29.4518C69.7217 29.2748 69.6853 29.1447 69.6124 29.0614C69.5499 28.9781 69.4511 28.9313 69.3157 28.9209L66.9735 28.593C66.2449 28.4889 65.6567 28.2494 65.2091 27.8747C64.7719 27.4999 64.5533 26.8753 64.5533 26.0009V24.3614C64.5533 23.4766 64.8395 22.7999 65.4121 22.3315C65.9846 21.8526 66.7758 21.6132 67.7855 21.6132H72.1576C72.3554 21.6132 72.4959 21.6601 72.5792 21.7538C72.6729 21.837 72.7197 21.9776 72.7197 22.1753V24.0335C72.7197 24.2313 72.6729 24.377 72.5792 24.4707C72.4959 24.554 72.3554 24.5956 72.1576 24.5956H68.5194C68.3841 24.5956 68.28 24.6425 68.2071 24.7361C68.1342 24.8194 68.0978 24.9287 68.0978 25.0641C68.0978 25.1994 68.1342 25.3139 68.2071 25.4076C68.28 25.5013 68.3841 25.5533 68.5194 25.5637L70.846 25.876C71.5746 25.9801 72.1628 26.2195 72.6104 26.5943C73.058 26.969 73.2818 27.5936 73.2818 28.468V30.1076C73.2818 30.9924 72.9904 31.6742 72.4074 32.1531C71.8349 32.6215 71.049 32.8558 70.0496 32.8558ZM80.1464 32.8558H77.6169C77.4191 32.8558 77.2733 32.8141 77.1796 32.7308C77.0964 32.6371 77.0547 32.4914 77.0547 32.2936V24.6268H74.7594C74.5616 24.6268 74.4159 24.5852 74.3222 24.5019C74.2389 24.4082 74.1973 24.2625 74.1973 24.0647V22.1753C74.1973 21.9776 74.2389 21.837 74.3222 21.7538C74.4159 21.6601 74.5616 21.6132 74.7594 21.6132H83.0039C83.2017 21.6132 83.3422 21.6601 83.4255 21.7538C83.5192 21.837 83.566 21.9776 83.566 22.1753V24.0647C83.566 24.2625 83.5192 24.4082 83.4255 24.5019C83.3422 24.5852 83.2017 24.6268 83.0039 24.6268H80.7086V32.2936C80.7086 32.4914 80.6617 32.6371 80.568 32.7308C80.4847 32.8141 80.3442 32.8558 80.1464 32.8558ZM92.8919 32.8558H85.6467C85.4489 32.8558 85.3032 32.8141 85.2095 32.7308C85.1262 32.6371 85.0845 32.4914 85.0845 32.2936V22.1753C85.0845 21.9776 85.1262 21.837 85.2095 21.7538C85.3032 21.6601 85.4489 21.6132 85.6467 21.6132H92.8919C93.0896 21.6132 93.2302 21.6601 93.3135 21.7538C93.4072 21.837 93.454 21.9776 93.454 22.1753V24.0023C93.454 24.2 93.4072 24.3458 93.3135 24.4395C93.2302 24.5227 93.0896 24.5644 92.8919 24.5644H88.5822V25.7667H91.6271C91.8249 25.7667 91.9654 25.8136 92.0487 25.9072C92.1424 25.9905 92.1892 26.1311 92.1892 26.3288V27.9996C92.1892 28.1974 92.1424 28.3431 92.0487 28.4368C91.9654 28.5201 91.8249 28.5617 91.6271 28.5617H88.5822V29.9046H92.8919C93.0896 29.9046 93.2302 29.9514 93.3135 30.0451C93.4072 30.1284 93.454 30.2689 93.454 30.4667V32.2936C93.454 32.4914 93.4072 32.6371 93.3135 32.7308C93.2302 32.8141 93.0896 32.8558 92.8919 32.8558ZM98.1898 32.8558H95.8632C95.6654 32.8558 95.5197 32.8141 95.426 32.7308C95.3427 32.6371 95.3011 32.4914 95.3011 32.2936V22.1753C95.3011 21.9776 95.3427 21.837 95.426 21.7538C95.5197 21.6601 95.6654 21.6132 95.8632 21.6132H98.3772C98.5437 21.6132 98.679 21.6497 98.7831 21.7225C98.8976 21.7954 99.0017 21.9151 99.0954 22.0817L100.501 24.6268C100.553 24.7205 100.594 24.7882 100.626 24.8298C100.667 24.8715 100.719 24.8923 100.782 24.8923H100.922C100.985 24.8923 101.032 24.8715 101.063 24.8298C101.105 24.7882 101.151 24.7205 101.203 24.6268L102.593 22.0817C102.687 21.9151 102.786 21.7954 102.89 21.7225C103.004 21.6497 103.145 21.6132 103.311 21.6132H105.841C106.039 21.6132 106.179 21.6601 106.263 21.7538C106.356 21.837 106.403 21.9776 106.403 22.1753V32.2936C106.403 32.4914 106.356 32.6371 106.263 32.7308C106.179 32.8141 106.039 32.8558 105.841 32.8558H103.436C103.239 32.8558 103.093 32.8141 102.999 32.7308C102.916 32.6371 102.874 32.4914 102.874 32.2936V26.7973L101.953 28.4993C101.859 28.6762 101.745 28.8064 101.609 28.8896C101.484 28.9625 101.323 28.9989 101.125 28.9989H100.501C100.303 28.9989 100.136 28.9625 100.001 28.8896C99.8762 28.8064 99.7669 28.6762 99.6732 28.4993L98.7519 26.7973V32.2936C98.7519 32.4914 98.7051 32.6371 98.6114 32.7308C98.5281 32.8141 98.3876 32.8558 98.1898 32.8558ZM113.768 32.8558H108.833C108.636 32.8558 108.49 32.8141 108.396 32.7308C108.313 32.6371 108.271 32.4914 108.271 32.2936V30.4667C108.271 30.2689 108.313 30.1284 108.396 30.0451C108.49 29.9514 108.636 29.9046 108.833 29.9046H113.034C113.169 29.9046 113.268 29.8629 113.33 29.7797C113.403 29.686 113.44 29.5767 113.44 29.4518C113.44 29.2748 113.403 29.1447 113.33 29.0614C113.268 28.9781 113.169 28.9313 113.034 28.9209L110.692 28.593C109.963 28.4889 109.375 28.2494 108.927 27.8747C108.49 27.4999 108.271 26.8753 108.271 26.0009V24.3614C108.271 23.4766 108.558 22.7999 109.13 22.3315C109.703 21.8526 110.494 21.6132 111.504 21.6132H115.876C116.073 21.6132 116.214 21.6601 116.297 21.7538C116.391 21.837 116.438 21.9776 116.438 22.1753V24.0335C116.438 24.2313 116.391 24.377 116.297 24.4707C116.214 24.554 116.073 24.5956 115.876 24.5956H112.237C112.102 24.5956 111.998 24.6425 111.925 24.7361C111.852 24.8194 111.816 24.9287 111.816 25.0641C111.816 25.1994 111.852 25.3139 111.925 25.4076C111.998 25.5013 112.102 25.5533 112.237 25.5637L114.564 25.876C115.293 25.9801 115.881 26.2195 116.328 26.5943C116.776 26.969 117 27.5936 117 28.468V30.1076C117 30.9924 116.708 31.6742 116.125 32.1531C115.553 32.6215 114.767 32.8558 113.768 32.8558Z" fill="black"/>
<path d="M35.5737 23.1229C35.0835 23.1229 34.7227 23.2776 34.4394 23.5219L32.7693 21.8517L31.2503 22.358L30.7006 20.1584H28.4328C28.2971 16.8079 27.0745 14.5218 26.2403 12.9897C25.7257 12.0441 25.319 11.297 25.4642 10.86C25.5798 10.5132 25.8389 10.2968 26.2557 10.1984C27.1504 9.98611 28.5384 10.4047 29.2255 11.0919L30.2376 12.1034V10.6721C30.2376 10.5422 30.2038 7.63529 27.4113 6.20346L28.9356 1.63164L25.3759 3.76726C25.2271 3.06585 24.8915 2.11545 24.1349 1.35951L23.4567 0.681237L23.1531 1.59133C23.0511 1.89785 22.8887 2.32177 22.7085 2.71961C22.1357 1.41168 20.9736 0 18.9726 0H18.0098L18.4426 0.859696C19.0817 2.1279 19.9633 4.53624 19.6112 5.59869C19.5264 5.85425 19.393 5.94494 19.2999 5.99179C18.2398 6.52184 15.4295 6.52184 14.2294 6.52184C6.25028 6.52184 0 12.7721 0 20.7513C0 28.5971 6.38368 34.9807 14.2294 34.9807C15.7473 34.9807 17.092 34.7923 18.3406 34.4192C20.0197 35.793 22.7078 36.7594 25.4945 36.7594C33.8005 36.7594 36.7594 32.1651 36.7594 27.866C36.7594 24.5861 36.588 23.1229 35.5737 23.1229ZM32.4491 23.2083L33.7689 24.528C33.6456 24.8203 33.5399 25.1316 33.4387 25.4429C33.2875 25.9047 33.1232 26.3986 32.8948 26.8943L31.4234 25.7909V23.5503L32.4491 23.2083ZM28.5395 25.048L30.2376 25.3877V25.7909L28.2615 27.2731H27.0277L26.9393 27.3615L26.7656 26.8403L28.5443 25.0616L28.5395 25.048ZM26.8456 23.7158L27.1878 24.7415L26.0121 25.9172L24.9852 25.233L25.3646 23.7158H26.8456ZM24.3087 26.2071L25.5893 27.0609L26.002 28.2994L25.4595 28.8419L25.268 28.4589H23.3683L23.1229 28.2135V26.9974L24.3087 26.2071ZM22.0064 28.7738L20.9517 30.8827C20.6428 30.7866 20.3789 30.6657 20.1584 30.5246V28.2935L21.1841 27.9514L22.0064 28.7738ZM22.8964 29.6447H24.5351L25.2502 31.0742C24.1225 31.2094 23.06 31.2254 22.1582 31.121L22.8964 29.6447ZM26.4804 30.8833L26.0186 29.9595L27.5186 28.4589H28.1625L29.3773 30.0787C29.2125 30.1439 29.0441 30.208 28.8639 30.2679C28.0795 30.5293 27.2743 30.7327 26.4804 30.8833ZM30.4694 29.5581L29.289 27.9846L30.8305 26.8285L32.2973 27.9289C31.8752 28.5158 31.3007 29.0767 30.4694 29.5581ZM30.2376 23.1964V24.1788L28.1079 23.7531L27.7006 22.53H27.6396L28.2324 21.3442H29.7746L30.2376 23.1964ZM1.18579 20.7513C1.18579 13.4374 6.91552 7.70761 14.2294 7.70761C16.4576 7.70761 18.6785 7.62817 19.8305 7.05248C20.2604 6.83726 20.574 6.46374 20.7371 5.97224C21.1693 4.66962 20.4946 2.63008 19.9793 1.38204C21.5464 2.04134 21.927 4.14432 21.9448 4.24809L22.1339 5.38467L22.9486 4.57004C23.3001 4.21845 23.6298 3.57575 23.8735 3.01487C24.2962 3.86566 24.3087 4.73309 24.3087 4.74314V5.7902L26.7965 4.29731L25.9409 6.86452L26.4597 7.07265C27.834 7.62225 28.4797 8.60054 28.7826 9.39916C27.8797 8.99777 26.8279 8.84481 25.983 9.04341C25.1684 9.23612 24.5844 9.74779 24.3389 10.4841C24.03 11.4103 24.5458 12.3571 25.1986 13.5565C26.0624 15.1431 27.2364 17.3143 27.2678 20.622L26.3138 22.53H24.4385L23.7887 25.1286L21.9371 26.3631V27.0277L21.5043 26.5949L18.9726 27.4385V29.7419C18.8013 29.6862 18.6127 29.6447 18.3797 29.6447C17.4975 29.6447 16.6011 30.786 16.6011 31.4234C16.6011 32.1236 16.8856 32.8132 17.3807 33.4527C16.416 33.6804 15.3785 33.7949 14.2294 33.7949C7.03706 33.7949 1.18579 27.9437 1.18579 20.7513ZM25.4945 35.5737C21.4438 35.5737 17.836 33.2845 17.7874 31.4607C17.8586 31.2597 18.2178 30.8584 18.3797 30.8305C18.6637 30.8305 18.7615 30.9165 19.0218 31.1447L19.1843 31.2847C21.1254 32.9091 25.7109 32.5682 29.2386 31.3926C33.1648 30.0841 34.0067 27.5133 34.5646 25.8117C34.8854 24.8328 35.0506 24.4509 35.3473 24.343C35.452 24.6911 35.5737 25.5857 35.5737 27.866C35.5737 31.5924 32.9257 35.5737 25.4945 35.5737Z" fill="#FF0000"/>
<path d="M21.4701 1.62656L19.3556 0.813293L20.1689 3.09043V5.53021C19.3556 6.34347 17.6315 7.83988 17.2411 7.31939C16.7532 6.66878 -0.325348 7.15674 0.650567 20.3316C1.4313 30.8715 9.10849 34.157 12.8495 34.4823L17.7291 33.8317L17.2411 31.3919L18.217 30.416H19.3556V27.8136L20.6568 27.4883L22.446 27.8136V26.675L24.2352 25.3738L24.8858 23.5846L27.0003 22.934L27.4882 21.1448V17.8918L25.3737 12.5243V10.2471L27.0003 9.75917L29.6027 10.2471V9.75917L27.0003 6.50613L27.4882 3.74104L24.8858 4.5543V3.74104L23.5846 2.27716L22.446 3.74104L21.4701 1.62656Z" fill="url(#paint0_radial)"/>
<path d="M26.087 33.2018V34.3879C29.1748 34.3879 32.3035 32.5668 33.0279 31.8424L32.1896 31.0041C31.6596 31.5341 28.8166 33.2018 26.087 33.2018Z" fill="#FF0000"/>
<path d="M23.7156 33.202H24.9014V34.388H23.7156V33.202Z" fill="#FF0000"/>
<path d="M2.3714 20.7514C2.3714 21.8316 2.51678 22.8979 2.80398 23.9292C2.89182 24.2446 3.22915 24.4121 3.53975 24.3084C3.85029 24.2048 4.01632 23.8694 3.93028 23.5535C3.68243 22.6439 3.55719 21.7039 3.55719 20.7514C3.55719 17.9002 4.59881 15.2777 6.5024 13.3009C6.72953 13.065 6.74482 12.6909 6.52201 12.4509C6.29915 12.2109 5.92267 12.196 5.69408 12.4306C3.54655 14.6347 2.3714 17.5663 2.3714 20.7514Z" fill="white"/>
<path d="M10.6725 10.0794C10.773 10.3911 11.1068 10.5607 11.4227 10.4746C12.1774 10.269 12.9185 10.143 13.6373 10.098C13.9641 10.0775 14.2298 9.81382 14.2298 9.48637C14.2298 9.15895 13.9642 8.89191 13.6373 8.91019C12.7982 8.9571 11.9349 9.10267 11.0588 9.3448C10.743 9.43207 10.572 9.76766 10.6725 10.0794Z" fill="white"/>
<defs>
<radialGradient id="paint0_radial" cx="0" cy="0" r="1" gradientUnits="userSpaceOnUse" gradientTransform="translate(11.5483 18.8677) rotate(77.1631) scale(16.0149 13.7904)">
<stop stop-color="#FF0000" stop-opacity="0.34"/>
<stop offset="1" stop-color="#FF0000"/>
</radialGradient>
</defs>
</svg>
