<svg width="233" height="222" viewBox="0 0 233 222" fill="none" xmlns="http://www.w3.org/2000/svg">
<g clip-path="url(#clip0)">
<path opacity="0.9" d="M0 219.851C0 219.851 0.813498 205.851 15.437 206.66C15.437 206.66 19.366 188.645 42.9142 190.235C42.9142 190.235 44.3919 171.759 64.0305 171.787C64.0305 171.787 63.6107 146.35 92.8058 145.981C92.8058 145.981 96.3886 110.634 155.765 111.206C155.765 111.206 160.4 89.9888 208.701 88.6812V219.851H0Z" fill="#F5F6F6"/>
<path d="M66.0577 219.053H71.3779L43.9289 96.8523L38.8661 97.9951L66.0577 219.053Z" fill="#1E266D"/>
<path d="M139.961 219.053H145.283L117.834 96.8523L112.771 97.9951L139.961 219.053Z" fill="#1E266D"/>
<path d="M89.8785 219.053H84.5583L112.005 96.8523L117.07 97.9951L89.8785 219.053Z" fill="#1E266D"/>
<path d="M15.9736 219.053H10.6534L38.1025 96.8523L43.1652 97.9951L15.9736 219.053Z" fill="#1E266D"/>
<path d="M61.4991 121.186H66.8214L39.5996 0L34.3075 0.130114L61.4991 121.186Z" fill="#1E266D"/>
<path d="M101.417 121.186H106.739L79.5172 0L74.2252 0.130114L101.417 121.186Z" fill="#1E266D"/>
<path d="M44.7229 129.938H124.162L96.6483 7.44684H17.2089L44.7229 129.938Z" fill="#1E266D"/>
<path d="M49.7986 129.938H126.932L99.4176 7.44684H22.2846L49.7986 129.938Z" fill="#E2DDE3"/>
<path d="M129.011 127.006H42.4836V129.938H129.011V127.006Z" fill="#1E266D"/>
<path d="M56.2546 94.8117H65.5623L61.0924 75.0973H51.7847L56.2546 94.8117Z" fill="#1E266D"/>
<path d="M67.9725 94.8117H77.2801L71.6916 68.7759H62.3862L67.9725 94.8117Z" fill="#3751FF"/>
<path d="M80.6725 94.8117H89.978L83.2731 63.3112H73.9677L80.6725 94.8117Z" fill="#1E266D"/>
<path d="M92.743 94.8117H102.051L94.2294 57.3628H84.9218L92.743 94.8117Z" fill="#3751FF"/>
<path d="M50.5169 100.149H111.376L100.201 50.3952H98.1325L109.307 98.0754H50.5169V100.149Z" fill="#1E266D"/>
<path d="M76.4034 103.964L76.5405 104.772L166.945 89.3647L166.808 88.5566L76.4034 103.964Z" fill="#1E266D"/>
<path d="M228.593 208.833L224.424 212.571L216.49 204.289L220.659 200.549L228.593 208.833Z" fill="#E3D0E4"/>
<path d="M214.313 216.615H209.054L208.37 204.409H213.63L214.313 216.615Z" fill="#E3D0E4"/>
<path d="M208.779 216.006H214.688C214.787 216.003 214.883 216.038 214.956 216.106C215.029 216.173 215.073 216.267 215.077 216.366L215.365 221.05C215.365 221.297 215.269 221.534 215.096 221.709C214.924 221.885 214.689 221.986 214.443 221.989C212.386 221.952 211.414 221.831 208.805 221.831C207.206 221.831 200.41 221.998 198.203 221.998C196.04 221.998 196.057 219.81 196.994 219.612C201.189 218.723 206.388 217.498 207.872 216.329C208.131 216.124 208.449 216.01 208.779 216.006Z" fill="#1E266D"/>
<path d="M223.275 211.07L228.344 207.648C228.429 207.586 228.532 207.554 228.637 207.557C228.742 207.56 228.843 207.598 228.924 207.666L232.797 211.584C233.141 211.903 233.028 212.452 232.611 212.773C229.378 215.269 227.042 217.153 225.2 219.229C223.037 221.655 221.92 221.998 216.953 221.998C214.657 221.998 213.357 220.059 214.294 219.762C222.57 217.136 220.352 215.993 222.366 212.148C222.575 211.719 222.887 211.348 223.275 211.07Z" fill="#1E266D"/>
<path d="M216.492 204.292L220.581 208.561L224.752 204.818L220.663 200.549L216.492 204.292Z" fill="#C5B3C5"/>
<path d="M213.632 204.413H208.37L208.725 210.704H213.987L213.632 204.413Z" fill="#C5B3C5"/>
<path d="M190.503 82.5268C190.503 82.5268 184.963 120.965 183.072 141.889C181.557 158.671 217.771 208.75 217.771 208.75L224.776 202.142C224.776 202.142 198.325 157.268 200.361 138.582C202.332 120.483 209.015 82.5268 209.015 82.5268H190.503Z" fill="#1E266D"/>
<path d="M200.363 138.58C201.377 129.255 203.647 114.654 205.599 102.694C204.577 100.688 201.704 96.6224 201.704 96.6224C199.136 105.514 193.554 139.048 201.518 184.336C209.817 197.747 217.764 208.739 217.764 208.739L218.846 191.445C211.189 176.991 198.963 151.515 200.363 138.58Z" fill="#141945"/>
<path d="M225.2 201.743L217.342 209.153L214.813 206.43L223.8 198.224L225.2 201.743Z" fill="#1E266D"/>
<path d="M200.505 82.5268C200.505 82.5268 200.006 122.812 200.858 137.901C201.793 154.428 206.47 209.182 206.47 209.182H216.103C216.103 209.182 215.815 155.761 216.395 139.397C217.024 121.637 218.651 82.5268 218.651 82.5268H200.505Z" fill="#1E266D"/>
<path d="M216.49 209.186H206.081L205.503 205.521L216.992 206.096L216.49 209.186Z" fill="#1E266D"/>
<path d="M205.927 216.646C205.845 216.558 205.787 216.45 205.76 216.333C205.733 216.215 205.738 216.093 205.774 215.978C205.788 215.9 205.821 215.828 205.871 215.767C205.921 215.706 205.986 215.659 206.059 215.631C206.708 215.382 208.19 216.399 208.359 216.516C208.378 216.529 208.393 216.548 208.402 216.57C208.411 216.592 208.413 216.616 208.409 216.639C208.404 216.663 208.393 216.684 208.377 216.701C208.36 216.718 208.339 216.73 208.316 216.735C207.857 216.848 207.387 216.912 206.914 216.923C206.507 216.923 206.137 216.852 205.927 216.646ZM206.144 215.859C206.108 215.873 206.077 215.897 206.053 215.927C206.03 215.958 206.015 215.994 206.01 216.032C205.984 216.106 205.978 216.185 205.994 216.261C206.009 216.337 206.044 216.408 206.096 216.466C206.341 216.711 207.035 216.739 207.974 216.553C207.368 216.169 206.494 215.726 206.148 215.859H206.144Z" fill="#1E266D"/>
<path d="M208.225 216.722C207.702 216.409 206.927 215.308 207.04 214.733C207.06 214.632 207.114 214.541 207.193 214.474C207.271 214.406 207.369 214.367 207.472 214.362C207.566 214.347 207.662 214.355 207.753 214.385C207.843 214.415 207.925 214.466 207.991 214.534C208.524 215.045 208.405 216.561 208.4 216.626C208.398 216.647 208.39 216.666 208.379 216.683C208.367 216.7 208.352 216.714 208.333 216.724C208.316 216.734 208.297 216.739 208.277 216.739C208.259 216.737 208.241 216.731 208.225 216.722ZM207.513 214.605C207.334 214.627 207.297 214.711 207.28 214.783C207.2 215.16 207.712 215.997 208.178 216.386C208.193 215.885 208.149 215.015 207.834 214.709C207.799 214.675 207.758 214.647 207.712 214.629C207.667 214.61 207.619 214.601 207.57 214.601L207.513 214.605Z" fill="#1E266D"/>
<path d="M219.489 213.861C219.396 213.824 219.314 213.766 219.249 213.69C219.183 213.615 219.137 213.525 219.114 213.428C219.097 213.367 219.095 213.303 219.109 213.242C219.122 213.181 219.151 213.124 219.192 213.076C219.668 212.504 222.158 212.671 222.437 212.693C222.463 212.694 222.488 212.704 222.508 212.72C222.528 212.737 222.542 212.76 222.548 212.786C222.554 212.811 222.552 212.838 222.542 212.862C222.531 212.886 222.514 212.907 222.492 212.92C221.801 213.326 220.64 213.933 219.867 213.933C219.737 213.934 219.609 213.91 219.489 213.861ZM219.38 213.226C219.364 213.243 219.353 213.265 219.347 213.288C219.342 213.311 219.343 213.336 219.35 213.358C219.363 213.42 219.391 213.477 219.432 213.525C219.472 213.573 219.524 213.61 219.582 213.634C219.982 213.803 220.88 213.53 222.011 212.907C220.994 212.864 219.64 212.914 219.38 213.226Z" fill="#1E266D"/>
<path d="M222.429 212.933C221.704 212.916 220.123 212.389 219.999 211.819C219.971 211.68 219.999 211.482 220.341 211.322C221.55 210.741 222.505 212.675 222.541 212.755C222.552 212.774 222.558 212.795 222.558 212.816C222.558 212.837 222.552 212.858 222.541 212.877C222.53 212.894 222.515 212.908 222.496 212.918C222.478 212.928 222.458 212.933 222.438 212.933H222.429ZM220.445 211.543C220.293 211.617 220.229 211.691 220.239 211.76C220.311 212.096 221.462 212.567 222.217 212.662C222 212.278 221.44 211.456 220.791 211.456C220.671 211.458 220.552 211.487 220.445 211.541V211.543Z" fill="#1E266D"/>
<path d="M181.825 54.4461L190.899 59.4815C190.899 59.4815 191.168 59.089 191.607 58.4146C191.927 57.9158 192.338 57.2609 192.814 56.4932C195.482 52.1561 199.893 44.2148 198.751 40.8796C196.985 35.7032 190.473 35.7878 187.284 41.7882C185.737 44.7782 184.351 47.8497 183.134 50.9894C182.801 51.8286 182.524 52.5616 182.31 53.1298C181.994 53.956 181.825 54.4461 181.825 54.4461Z" fill="#3751FF"/>
<path d="M198.887 41.4737C196.86 40.4936 194.519 41.3133 192.063 45.208C189.638 49.0637 187.505 55.6171 187.275 57.4712L190.902 59.4815C190.902 59.4815 199.636 46.6566 198.887 41.4737Z" fill="#1E266D"/>
<path d="M190.473 83.1014H218.599C218.798 80.5837 218.216 72.3931 218.649 61.9623C218.939 54.9578 219.692 46.945 221.444 38.9755C221.572 38.4052 221.7 37.8435 221.834 37.2754C221.834 37.2754 220.408 36.9848 218.372 36.6855C216.676 36.4362 214.547 36.1803 212.461 36.0805C208.872 35.9114 203.673 35.7964 200.508 36.0805C198.671 36.2518 196.875 36.5576 195.443 36.8352C193.612 37.2038 192.364 37.5465 192.364 37.5465C192.364 37.5465 185.599 53.4572 190.473 83.1014Z" fill="#3751FF"/>
<path d="M218.651 61.9645C218.941 54.96 219.694 46.9472 221.447 38.9777C219.566 38.8129 216.351 38.9994 215.821 42.0419C215.246 45.3034 215.968 52.9975 218.651 61.9645Z" fill="#1E266D"/>
<path d="M216.736 44.9218L217.983 47.0795C218.405 47.8197 218.816 48.5671 219.216 49.3218C220.023 50.8268 220.804 52.3426 221.546 53.8758C222.288 55.4089 222.972 56.9399 223.595 58.4818C224.208 59.9936 224.741 61.5369 225.192 63.1052L225.276 63.3936L225.319 63.5389C225.332 63.5866 225.319 63.5562 225.332 63.5714C225.353 63.6106 225.366 63.6532 225.371 63.6972C225.396 63.9169 225.396 64.1388 225.371 64.3586C225.301 65.0303 225.161 65.693 224.956 66.3363C224.462 67.8794 223.862 69.3859 223.158 70.8448C221.723 73.8981 220.016 77.01 218.294 80.0134L221.405 82.4509C224.004 79.8001 226.35 76.9129 228.415 73.8265C229.506 72.2023 230.453 70.4863 231.247 68.6979C231.697 67.6782 232.044 66.6161 232.284 65.5274C232.422 64.8692 232.495 64.1986 232.5 63.5259C232.5 63.1229 232.47 62.7206 232.409 62.3223L232.362 62.0252L232.325 61.8431L232.251 61.4809C231.509 57.5905 230.215 54.0145 228.736 50.5709C227.989 48.8512 227.173 47.1749 226.304 45.529C225.871 44.7092 225.417 43.896 224.951 43.0872C224.486 42.2783 224.021 41.5041 223.465 40.6432L216.736 44.9218Z" fill="#E3D0E4"/>
<path d="M214.856 46.8669C216.04 50.393 217.985 54.6174 219.417 57.5666C219.794 58.3495 220.14 59.0456 220.423 59.6072C220.921 60.5961 221.232 61.1946 221.232 61.1946L231.888 55.2788C231.888 55.2788 231.754 54.8299 231.511 54.0752C231.327 53.5071 231.079 52.7611 230.789 51.9067C229.015 46.8366 225.391 37.7915 221.836 37.2732C216.522 36.4925 212.699 40.474 214.856 46.8669Z" fill="#3751FF"/>
<path d="M203.303 41.3046C209.45 39.9861 211.371 36.1607 211.371 36.1607C210.131 34.5671 209.297 32.6947 208.94 30.7054C208.584 28.7161 208.717 26.6697 209.326 24.7433L207.998 25.0295L204.9 28.6662C205.119 29.5489 205.163 30.4665 205.027 31.366C204.901 32.5533 204.41 33.6719 203.621 34.5668C202.953 35.2848 202.104 35.8092 201.163 36.0848C201.163 36.0848 198.684 39.6651 203.303 41.3046Z" fill="#E3D0E4"/>
<path d="M205.064 29.2669C205.141 29.6852 205.197 30.1072 205.231 30.5312C206.204 30.297 207.507 29.0522 207.643 27.8595C207.69 27.4637 207.701 27.0646 207.678 26.6668L205.064 29.2669Z" fill="#C8B8C9"/>
<path d="M204.093 15.0173C202.537 15.8587 201.672 21.1088 203.66 22.2365C205.648 23.3641 207.037 13.4256 204.093 15.0173Z" fill="#1E266D"/>
<path d="M211.189 20.6946C210.521 24.3703 210.287 26.5497 208.476 28.2325C205.75 30.7545 202.137 28.5144 201.873 24.7129C201.635 21.2909 202.766 15.8543 205.984 14.8156C209.173 13.7899 211.856 17.0189 211.189 20.6946Z" fill="#E3D0E4"/>
<path d="M214.757 17.0471C216.248 17.8408 215.406 20.2869 214.387 21.8439C212.978 24.0125 211.488 25.0144 210.473 24.0125C209.562 23.466 208.958 20.2522 209.757 18.2658C208.353 17.1642 205.447 18.5282 204.541 16.7261C203.634 14.924 202.989 15.0867 201.393 16.2686C199.796 17.4504 198.513 12.775 202.671 11.9076C200.371 13.1437 200.901 15.5573 202.582 13.0851C203.77 11.3503 206.615 9.41373 208.593 12.0138C210.047 13.9265 215.172 10.9946 214.757 17.0471Z" fill="#1E266D"/>
<path d="M211.897 24.5308C211.443 25.2199 210.748 25.7141 209.949 25.9165C208.982 26.1138 208.764 25.049 209.255 24.0038C209.688 23.0692 210.735 21.8352 211.598 22.1172C212.461 22.3991 212.522 23.6178 211.897 24.5308Z" fill="#E3D0E4"/>
<path d="M219.701 78.8359L214.463 77.9229L217.15 83.9949C217.15 83.9949 221.931 83.9667 221.711 81.4989L219.701 78.8359Z" fill="#E3D0E4"/>
<path d="M210.555 80.9763L213.015 85.8859L217.15 83.9992L214.463 77.9229L210.555 80.9763Z" fill="#E3D0E4"/>
<path d="M182.717 54.8603C182.419 59.0548 181.504 63.1822 180.001 67.1083C176.261 76.8387 169.818 82.7935 166.276 85.604L168.418 89.0411C172.375 86.7251 181.912 80.3777 186.375 68.3444C187.589 65.0415 188.331 61.5831 188.578 58.0719L182.717 54.8603Z" fill="#E3D0E4"/>
<path d="M167.606 85.8555L161.689 84.5544L162.338 90.3553C162.338 90.3553 168.085 90.6979 168.545 88.9522L167.606 85.8555Z" fill="#E3D0E4"/>
<path d="M157.304 87.7444L158.799 91.6608L162.336 90.3488L161.689 84.5479L157.304 87.7444Z" fill="#E3D0E4"/>
</g>
<defs>
<clipPath id="clip0">
<rect width="233" height="222" fill="white"/>
</clipPath>
</defs>
</svg>
