<svg width="233" height="199" viewBox="0 0 233 199" fill="none" xmlns="http://www.w3.org/2000/svg">
<g clip-path="url(#clip0)">
<path d="M7.24689 72.831L94.1166 171.085C96.8229 174.146 100.149 176.597 103.874 178.276C107.599 179.955 111.639 180.823 115.725 180.823H124.138C128.256 180.823 132.327 179.941 136.077 178.237C139.826 176.532 143.167 174.045 145.874 170.941L225.864 79.2474C241.225 61.6371 230.369 33.9682 207.12 31.5982C201.273 30.9949 195.383 30.9327 189.525 31.4127C159.191 33.9086 142.28 49.9661 121.761 40.601C107.745 34.1957 107.714 23.1012 97.2155 15.3839C84.8841 6.32802 61.7763 4.6295 15.8146 28.0002C-1.02484 36.5568 -5.27004 58.6862 7.24689 72.831Z" fill="#F5F6F6"/>
<path d="M62.5847 24.0001H27.2758V59.309H62.5847V24.0001Z" fill="#111539"/>
<path d="M27.2758 24.0002L37.2018 12.8416H72.5107L62.5869 24.0002H27.2758Z" fill="#1E266D"/>
<path d="M62.5869 24.0002V59.3091L72.5107 48.1505V12.8416L62.5869 24.0002Z" fill="#0A0D21"/>
<path d="M98.9648 36.8727H96.2016V35.9252H98.9648V36.8727ZM94.3087 36.8727H91.4705V35.9252H94.3087V36.8727ZM89.5798 36.8727H86.7416V35.9252H89.5798V36.8727ZM84.8509 36.8727H82.0127V35.9252H84.8509V36.8727ZM80.1198 36.8727H77.2838V35.9252H80.1198V36.8727ZM75.3909 36.8727H72.5526V35.9252H75.3909V36.8727ZM70.662 36.8727H67.8237V35.9252H70.662V36.8727Z" fill="#260F20"/>
<path d="M145.894 15.386H97.2045V64.0755H145.894V15.386Z" fill="#111539"/>
<path d="M97.2045 15.3861L110.892 0H159.579L145.894 15.3861H97.2045Z" fill="#1E266D"/>
<path d="M145.894 15.3861V64.0733L159.579 48.6895V0L145.894 15.3861Z" fill="#0A0D21"/>
<path d="M131.109 36.1703V28.9234C131.108 27.4028 130.614 25.9234 129.702 24.7069C128.801 23.4861 127.537 22.5816 126.09 22.1227C125.107 21.8091 124.118 21.8091 123.162 21.8091H120.376C119.175 21.7891 117.985 22.0452 116.898 22.5578C115.52 23.2442 114.403 24.3607 113.717 25.7384C113.214 26.7504 112.956 27.8663 112.964 28.9963V36.1703H110.437V52.2168C110.437 52.7332 110.539 53.2445 110.737 53.7215C110.934 54.1985 111.224 54.6319 111.589 54.9968C111.955 55.3618 112.388 55.6511 112.866 55.8483C113.343 56.0455 113.854 56.1467 114.371 56.1462H129.143C130.185 56.1456 131.184 55.7314 131.921 54.9946C132.657 54.2579 133.072 53.2588 133.072 52.2168V36.1703H131.109ZM115.177 28.9234C115.17 28.3915 115.255 27.8624 115.429 27.3596C115.62 26.819 115.896 26.3121 116.246 25.8577C116.625 25.3781 117.094 24.9767 117.626 24.676C118.166 24.3604 118.762 24.1526 119.38 24.0642C119.409 24.0642 119.504 24.0465 119.742 24.0311C119.842 24.0311 119.948 24.0311 120.08 24.0311H123.977C124.514 24.0219 125.05 24.1071 125.558 24.2829C126.098 24.4726 126.605 24.7478 127.058 25.0979C127.538 25.4779 127.94 25.9475 128.242 26.4806C128.555 27.0198 128.762 27.6145 128.851 28.2321C128.851 28.263 128.869 28.3558 128.884 28.5943C128.884 28.6937 128.884 28.7997 128.884 28.9278V36.1791H115.177V28.9234ZM122.506 46.452V50.3151C122.506 50.6022 122.172 50.8363 121.759 50.8363H121.744C121.331 50.8363 120.997 50.6022 120.997 50.3151V46.452C120.297 46.2686 119.689 45.8368 119.284 45.2371C118.88 44.6374 118.708 43.911 118.801 43.1938C118.893 42.4765 119.243 41.8174 119.787 41.3399C120.33 40.8623 121.028 40.5989 121.751 40.5989C122.474 40.5989 123.173 40.8623 123.716 41.3399C124.259 41.8174 124.61 42.4765 124.702 43.1938C124.794 43.911 124.622 44.6374 124.218 45.2371C123.814 45.8368 123.205 46.2686 122.506 46.452Z" fill="white"/>
<path d="M183.878 33.8689H181.114V32.9147H183.878V33.8689ZM179.224 33.8689H176.386V32.9147H179.224V33.8689ZM174.493 33.8689H171.657V32.9147H174.493V33.8689ZM169.764 33.8689H166.926V32.9147H169.764V33.8689ZM165.035 33.8689H162.197V32.9147H165.035V33.8689ZM160.306 33.8689H157.468V32.9147H160.313L160.306 33.8689ZM155.575 33.8689H152.739V32.9147H155.575V33.8689Z" fill="#260F20"/>
<path d="M213.863 22.9178H183.228V53.5531H213.863V22.9178Z" fill="#111539"/>
<path d="M183.228 22.9179L191.84 13.2369H222.475L213.866 22.9179H183.228Z" fill="#1E266D"/>
<path d="M213.866 22.9178V53.5531L222.475 43.8722V13.2369L213.866 22.9178Z" fill="#0A0D21"/>
<path d="M119.91 184.394C131.138 184.394 140.24 182.475 140.24 180.107C140.24 177.739 131.138 175.82 119.91 175.82C108.683 175.82 99.5811 177.739 99.5811 180.107C99.5811 182.475 108.683 184.394 119.91 184.394Z" fill="#0F1128"/>
<path d="M156.174 103.205L173.347 87.9154C174.081 87.2616 174.146 86.1363 173.493 85.402L171.886 83.5972C171.232 82.8629 170.107 82.7976 169.372 83.4514L152.2 98.7411C151.465 99.3949 151.4 100.52 152.054 101.254L153.661 103.059C154.314 103.794 155.44 103.859 156.174 103.205Z" fill="#C8C5C9"/>
<path d="M179.891 94.121L192.118 83.9167C193.83 82.4785 194.902 80.4218 195.103 78.1955C195.303 75.9692 194.615 73.7541 193.187 72.0336L188.176 66.0325C186.738 64.3214 184.682 63.2486 182.456 63.0484C180.23 62.8481 178.015 63.5365 176.295 64.9635L164.067 75.1678C162.356 76.606 161.283 78.6627 161.083 80.889C160.883 83.1153 161.571 85.3304 162.998 87.0509L168.01 93.052C169.447 94.7636 171.504 95.8367 173.73 96.0371C175.956 96.2374 178.171 95.5485 179.891 94.121ZM171.847 89.8493L166.837 83.846C166.265 83.1412 165.99 82.2406 166.073 81.3364C166.156 80.4322 166.588 79.5961 167.279 79.0066L179.502 68.8C180.207 68.2281 181.108 67.9542 182.012 68.0367C182.916 68.1193 183.752 68.5517 184.341 69.2418L189.353 75.2429C189.925 75.9479 190.199 76.8484 190.116 77.7525C190.034 78.6565 189.601 79.4925 188.911 80.0823L176.688 90.2889C175.983 90.8607 175.082 91.1346 174.178 91.0526C173.274 90.9705 172.437 90.5388 171.847 89.8493Z" fill="#E2DDE3"/>
<path d="M151.579 121.706L162.521 110.137C164.055 108.509 164.881 106.341 164.821 104.106C164.76 101.872 163.818 99.7514 162.199 98.2094L156.522 92.8311C154.895 91.2984 152.727 90.472 150.492 90.5324C148.257 90.5928 146.137 91.5352 144.595 93.1536L133.644 104.716C132.111 106.344 131.284 108.512 131.345 110.747C131.405 112.981 132.348 115.102 133.967 116.644L139.643 122.02C141.27 123.557 143.439 124.387 145.676 124.328C147.913 124.269 150.036 123.326 151.579 121.706ZM137.417 113.021C136.765 112.389 136.386 111.527 136.361 110.619C136.336 109.711 136.668 108.829 137.284 108.162L148.235 96.6015C148.868 95.9499 149.73 95.5713 150.638 95.5465C151.546 95.5218 152.427 95.8528 153.094 96.4689L158.766 101.841C159.418 102.473 159.797 103.335 159.821 104.243C159.846 105.151 159.515 106.033 158.899 106.7L147.944 118.258C147.311 118.91 146.449 119.288 145.541 119.313C144.633 119.338 143.752 119.007 143.084 118.391L137.417 113.021Z" fill="#E2DDE3"/>
<path d="M106.74 149.185L112.725 154.217C114.441 155.649 116.654 156.345 118.881 156.152C121.107 155.958 123.167 154.892 124.61 153.185L134.855 140.995C136.288 139.28 136.984 137.067 136.792 134.84C136.599 132.613 135.532 130.553 133.825 129.11L127.844 124.078C126.128 122.646 123.916 121.95 121.689 122.143C119.462 122.336 117.402 123.403 115.959 125.11L105.708 137.3C104.275 139.015 103.58 141.228 103.773 143.455C103.966 145.682 105.033 147.742 106.74 149.185ZM109.536 140.516L119.782 128.332C120.375 127.646 121.213 127.218 122.117 127.14C123.02 127.061 123.919 127.339 124.621 127.913L130.607 132.944C131.295 133.537 131.723 134.375 131.802 135.28C131.88 136.184 131.602 137.083 131.027 137.786L120.776 149.978C120.182 150.664 119.345 151.092 118.44 151.171C117.536 151.249 116.637 150.972 115.934 150.398L109.953 145.357C109.266 144.764 108.838 143.926 108.76 143.021C108.682 142.117 108.96 141.218 109.536 140.516Z" fill="#E2DDE3"/>
<path d="M129.218 133.099L145.031 116.407C145.707 115.693 145.677 114.566 144.963 113.89L143.209 112.228C142.495 111.552 141.368 111.582 140.692 112.296L124.879 128.989C124.203 129.702 124.233 130.829 124.947 131.505L126.701 133.167C127.415 133.843 128.542 133.813 129.218 133.099Z" fill="#C8C5C9"/>
<path d="M94.3176 103.778C94.4236 103.362 93.9995 102.812 93.0674 102.19L92.9438 102.108C92.9282 102.1 92.9134 102.09 92.8996 102.079L92.8112 102.026L92.7582 101.991L92.6743 101.94L92.6169 101.907L92.5329 101.856L92.4667 101.818L92.3849 101.772L92.3121 101.73L92.2303 101.686L92.1552 101.644L92.0625 101.606L91.9852 101.567L91.9101 101.527H91.8968L91.8217 101.487L91.7267 101.439L91.6472 101.399L91.5523 101.35L91.4683 101.31L91.3711 101.262L91.285 101.222L91.2187 101.189H91.1944L90.936 101.07L90.8874 101.048L90.6533 100.942L90.6135 100.924L90.5848 100.911L90.3286 100.8L66.7393 90.6908L66.4632 90.5738H66.4433L65.9772 90.386L65.9309 90.3662L65.8668 90.3419L65.4648 90.1851L65.4184 90.1674H65.403L64.9612 90.0017L64.9193 89.9863L64.8397 89.9576L64.5018 89.8383L64.4245 89.8096L64.3759 89.7941L63.9342 89.6439H63.9099L63.4924 89.5048L63.4438 89.4893L63.3555 89.4606L63.0396 89.3612L62.9557 89.3347L62.8983 89.317L62.5515 89.211L62.4764 89.1889H62.4587L62.0302 89.063H62.0126L61.9132 89.0343L61.6106 88.9482L61.5664 88.9349L61.4427 88.9018L61.2042 88.8355L61.1401 88.8178L60.8905 88.7516L60.7403 88.7118L60.6211 88.6809L60.4245 88.6301L60.3494 88.6102L60.2279 88.5815L60.0379 88.5329L59.9629 88.5152L59.8414 88.4843L59.6514 88.4379L59.594 88.354L59.4769 88.3275L59.2693 88.2789L59.1942 88.2612L59.0926 88.2392L58.8519 88.1839L58.7635 88.1641L58.6928 88.1486L58.3041 88.0669L58.2356 88.0514H58.2157L57.7939 87.9653L57.7121 87.9498L57.3742 87.8835H57.3344L57.2262 87.8637L56.9678 87.8173L56.8066 87.7886L56.5592 87.7444L56.473 87.7289H56.4156L55.9275 87.6494H55.8855L55.4438 87.5854L55.3797 87.5743H55.3245L54.8828 87.5147L54.6155 87.4816H54.589H54.5559L54.1892 87.4418H54.1649L53.8093 87.4065H53.7762L53.4184 87.3777H53.3676L53.0296 87.3557H52.9722L52.6762 87.3424H52.6276H52.3449H51.7706H51.5741L30.9709 88.005H30.7324H30.686L30.5093 88.0161H30.4386C30.4143 88.0161 30.39 88.0161 30.3657 88.0161H30.2884H30.2332L30.0455 88.0382H29.9969L29.8312 88.0647H29.7826H29.734L29.6413 88.0823H29.6192L29.4933 88.111H29.469H29.4336L29.3166 88.1442H29.2923L29.1774 88.1839H29.1509L29.1068 88.2016L29.056 88.2237H29.0361L28.9477 88.2679H28.9367L28.9168 88.2811C28.8917 88.2945 28.8674 88.3093 28.8439 88.3253L28.8262 88.3385H28.813C28.7914 88.3543 28.7708 88.3712 28.7511 88.3893C28.7504 88.393 28.7504 88.3967 28.7511 88.4004L28.7136 88.4335L28.6981 88.4512L28.6827 88.4711L28.6407 88.5241V88.5373C28.6269 88.5602 28.6143 88.5838 28.6032 88.608C28.5959 88.6245 28.59 88.6414 28.5855 88.6588V88.6809L25.7583 99.6407C25.7649 99.6149 25.7737 99.5898 25.7848 99.5656C25.7963 99.5404 25.8096 99.516 25.8246 99.4927V99.4794C25.8246 99.4618 25.8511 99.4419 25.8643 99.4242L25.882 99.4065L25.9328 99.3535C25.9571 99.3336 25.9814 99.3138 26.0079 99.2961L26.0278 99.2828L26.0984 99.2365L26.1205 99.2254L26.2177 99.1746H26.2398L26.3348 99.1349L26.3613 99.1238L26.485 99.0819H26.5093L26.6263 99.0487H26.6617L26.8097 99.0134H26.834L26.9753 98.9847H27.0217L27.1896 98.9604L27.3795 98.9361H27.4369L27.5871 98.9206H27.6578L27.8345 98.9074H27.8787L28.1283 98.8963L48.7314 98.2337H48.928H49.5023H49.785H49.8336L50.1295 98.2469H50.1848L50.5249 98.269H50.5735L50.9313 98.2978H50.9667L51.3223 98.3309H51.3443L51.711 98.3706H51.7728L52.0401 98.4016L52.4818 98.4612L52.6011 98.4789L53.0429 98.5451H53.0826L53.5708 98.6246L53.7165 98.6489L53.9617 98.6909L54.1229 98.7196L54.3814 98.7682L54.5316 98.7947L54.8673 98.861L54.9512 98.8764L55.3709 98.9626L55.4592 98.9825L55.8502 99.0664L56.0092 99.1017L56.2478 99.1547L56.4267 99.1967L56.6343 99.2453L56.822 99.2895L57.0142 99.3358L57.2108 99.3822L57.4007 99.4308L57.5951 99.4794L57.7939 99.5324L58.0633 99.6009L58.377 99.687L58.6155 99.7511L58.7834 99.7997L59.0882 99.8858L59.2008 99.9167L59.6293 100.045L59.7265 100.074L60.0689 100.177L60.2124 100.224L60.5261 100.323L60.6652 100.367L61.0827 100.504H61.1092C61.2572 100.555 61.4052 100.604 61.5509 100.657L61.6746 100.699L62.0148 100.82L62.1363 100.864L62.578 101.028L62.6421 101.052L63.0418 101.207L63.1523 101.251C63.3113 101.313 63.4659 101.377 63.6183 101.441L63.9143 101.564L87.5125 111.734L87.7687 111.844L87.8349 111.873L88.0713 111.979L88.1177 112.001L88.3783 112.122L88.4666 112.164L88.5528 112.206L88.6522 112.253L88.7339 112.295L88.8311 112.343L88.9106 112.383L89.0034 112.429L89.0785 112.469L89.1668 112.515C89.1933 112.528 89.2191 112.542 89.2441 112.557L89.3325 112.604L89.4054 112.644L89.4893 112.692C89.5128 112.703 89.5357 112.716 89.5578 112.73L89.6395 112.776L89.708 112.816L89.7875 112.864L89.8493 112.9L89.9332 112.951L89.9863 112.984L90.0724 113.039C90.0879 113.047 90.1027 113.057 90.1166 113.068C90.1607 113.094 90.2027 113.121 90.2425 113.149C91.1723 113.772 91.5986 114.32 91.4904 114.735L94.3176 103.778Z" fill="#1E266D"/>
<path d="M93.1227 115.25L93.136 115.215C93.136 115.215 93.136 115.199 93.136 115.19V115.164L95.961 104.206L95.9455 104.255C95.9417 104.267 95.9365 104.279 95.9301 104.29C95.9301 104.303 95.9301 104.314 95.9146 104.328L95.8947 104.361C95.8947 104.374 95.8793 104.385 95.8726 104.396L95.8505 104.427L95.8218 104.462L95.7975 104.489L95.76 104.526L95.7357 104.549C95.719 104.564 95.7013 104.579 95.6827 104.593L95.665 104.606C95.6398 104.626 95.6132 104.645 95.5855 104.661L95.5612 104.674C95.538 104.69 95.5136 104.704 95.4883 104.716L95.4044 104.758L95.3757 104.772L95.3138 104.798L95.263 104.82L95.2122 104.838L95.1548 104.858L95.1018 104.878L95.0399 104.895L94.9847 104.913L94.9184 104.931L94.8588 104.946L94.7837 104.964L94.7241 104.977L94.6424 104.993L94.5827 105.006L94.4634 105.026H94.4325L94.2735 105.05H94.2359L94.1012 105.065H94.0372H93.9223H93.8516H93.7235H93.6462H93.5159H93.4408H93.1912L72.5881 105.728C72.4968 105.728 72.404 105.728 72.3098 105.728H71.6737H71.4528H71.3225L71.0265 105.713H70.9492L70.5384 105.686H70.4147L70.1121 105.662L69.9575 105.646L69.6814 105.62L69.5246 105.604L69.222 105.571L69.085 105.556L68.725 105.512H68.6543L68.2126 105.452H68.1397L67.6516 105.379L67.5124 105.357C67.3291 105.328 67.1435 105.3 66.958 105.266L66.5516 105.198L65.9994 105.141L65.8271 105.107L65.5312 105.05L65.3456 105.012L65.032 104.948L64.8663 104.915L64.3296 104.798L64.1728 104.763L63.8547 104.692L63.6339 104.644L63.3975 104.588L63.1767 104.533L62.9558 104.48L62.7239 104.423L62.503 104.37L62.2821 104.312L62.0612 104.255L61.8404 104.197L61.593 104.131L61.3942 104.078L61.1203 104.003L60.9237 103.948L60.6278 103.864L60.44 103.809L60.1021 103.709L59.9408 103.661L59.4461 103.51L58.8696 103.327L58.6708 103.263L58.2975 103.139L57.9508 103.02L57.7299 102.945C57.5399 102.879 57.3522 102.813 57.1667 102.744L57.0783 102.711L56.6034 102.536L56.44 102.472L56.038 102.318L55.8503 102.243L55.4615 102.084L55.0595 101.916L31.479 91.7997L31.13 91.6473L30.9511 91.5678L30.7744 91.4861L30.6044 91.4066L30.4321 91.327L30.3857 91.305L30.1317 91.1813L30.0765 91.1548L29.807 91.02L29.7518 90.9913L29.5309 90.872L29.4889 90.85L29.246 90.7152C29.2269 90.7063 29.2084 90.6959 29.1908 90.6843C29.1201 90.6445 29.0494 90.607 28.9831 90.5672L28.9522 90.5496L28.7314 90.4193L28.6805 90.3883L28.4972 90.2713L28.4729 90.2558L28.283 90.1299L28.2366 90.099L28.0731 89.9841L28.0577 89.9731L27.8942 89.8494L27.8545 89.8207L27.7109 89.7058C27.6623 89.6661 27.6181 89.6263 27.574 89.5866L27.5408 89.5579L27.4194 89.443C26.9931 89.0233 26.8186 88.6501 26.8981 88.3386L24.0709 99.2962C23.9914 99.6054 24.1681 99.9787 24.5922 100.401L24.7159 100.518C24.7272 100.526 24.7376 100.536 24.7468 100.546L24.8837 100.663C24.9279 100.701 24.9765 100.741 25.0273 100.778L25.0648 100.809L25.2283 100.931H25.2438L25.4094 101.048L25.4536 101.076L25.6435 101.205L25.6678 101.218C25.7275 101.258 25.7893 101.297 25.8534 101.335L25.9042 101.366L26.125 101.496L26.1582 101.516L26.3636 101.633L26.4188 101.664L26.6618 101.796L26.7059 101.819C26.7479 101.843 26.7921 101.865 26.8363 101.887L26.9334 101.938L26.9887 101.967L27.2559 102.101L27.3111 102.13L27.5673 102.269L27.6115 102.289H27.6336L27.786 102.36L27.9561 102.439L28.1328 102.519L28.3095 102.598H28.3294L28.6585 102.742L52.2434 112.871C52.3472 112.917 52.4532 112.962 52.5614 113.006L52.6454 113.041L53.0319 113.198L53.1733 113.255L53.2219 113.273C53.3522 113.326 53.4869 113.377 53.6216 113.428L53.7652 113.485H53.7851L54.2622 113.662L54.3439 113.693C54.5316 113.759 54.7194 113.827 54.9093 113.892L55.1302 113.967L55.477 114.084L55.8613 114.212L56.0402 114.269L56.6034 114.448H56.6167L57.1115 114.601L57.1534 114.614L57.2705 114.647L57.6106 114.749L57.6901 114.771L57.7984 114.802L58.0943 114.885L58.2048 114.919L58.2887 114.941L58.5626 115.016L58.6951 115.053L58.7636 115.071L59.011 115.137L59.1634 115.177L59.223 115.192L59.4439 115.252L59.6051 115.294L59.6648 115.31L59.8856 115.363L60.0513 115.405L60.1153 115.42L60.3362 115.473L60.4997 115.513L60.5637 115.526L60.7978 115.581L60.9569 115.619L61.0121 115.632L61.3257 115.703L61.4605 115.731H61.487L62.0237 115.846H62.0612L62.1871 115.873L62.5008 115.937L62.6885 115.972L62.9845 116.032L63.0839 116.049L63.1546 116.063L63.7178 116.167L64.1087 116.235H64.1242L64.6808 116.326L64.8177 116.345L65.3059 116.418H65.3611H65.381L65.8227 116.478H65.8978L66.2556 116.522H66.2888L66.3904 116.533L66.693 116.566L66.852 116.584L67.1281 116.611H67.2164H67.2827L67.5831 116.635H67.7068L68.1176 116.661H68.1905L68.4843 116.675H68.6146H68.8465H69.5091H69.7521L90.3552 116.012H90.6026H90.6799H90.8102H90.8875H91.0156H91.0642H91.0841H91.1989H91.2652L91.3999 115.994H91.4331L91.5943 115.97H91.6208L91.7445 115.948H91.7997L91.8814 115.93L91.9411 115.917L92.0162 115.899L92.067 115.886L92.131 115.868L92.1885 115.851L92.2503 115.833L92.2945 115.818L92.3497 115.798L92.4005 115.778L92.4535 115.758L92.5043 115.736L92.5352 115.723L92.6191 115.681L92.639 115.67L92.692 115.639C92.6993 115.632 92.7075 115.627 92.7163 115.623L92.7936 115.57L92.8091 115.557L92.8643 115.513L92.8864 115.491L92.9195 115.46L92.9438 115.431C92.9438 115.431 92.9637 115.409 92.9725 115.396L92.9924 115.367C92.999 115.359 93.005 115.351 93.0101 115.343L93.0278 115.307L93.1227 115.25Z" fill="#1E266D"/>
<path d="M95.4573 103.104C94.7593 102.415 93.3899 101.598 91.3866 100.741L67.795 90.6312C66.3616 90.0255 64.8983 89.4932 63.4107 89.0365C61.0803 88.3123 58.7072 87.7332 56.3052 87.3027C54.0081 86.8962 51.8877 86.682 50.2576 86.735L29.6567 87.3976C28.5722 87.433 27.808 87.581 27.3574 87.8217C26.6837 88.1817 26.7102 88.7472 27.4082 89.4363C28.1062 90.1254 29.4734 90.9405 31.4789 91.7997L55.0683 101.909C56.5025 102.514 57.9666 103.047 59.4548 103.504C61.7857 104.226 64.1587 104.805 66.5603 105.238C68.8574 105.644 70.9778 105.856 72.6057 105.803L93.2088 105.14C94.2933 105.107 95.0553 104.957 95.5059 104.716C96.1817 104.356 96.1552 103.793 95.4573 103.104ZM91.9233 104.588L71.3224 105.251C70.2146 105.27 69.107 105.204 68.0093 105.054C65.9728 104.784 63.9563 104.381 61.9728 103.846C59.9774 103.328 58.0214 102.669 56.1196 101.874L32.5259 91.7643C31.5753 91.3725 30.6616 90.8965 29.7959 90.3419C28.8086 89.6793 28.3911 89.1028 28.5722 88.6809C28.7533 88.259 29.5352 87.9896 30.9466 87.9454L51.5497 87.2828C52.6575 87.2628 53.7652 87.3285 54.8628 87.4794C56.8993 87.7486 58.9158 88.1515 60.8993 88.6853C62.8947 89.2031 64.8507 89.8622 66.7525 90.6577L90.3418 100.767C91.2922 101.157 92.2059 101.631 93.0718 102.183C94.0614 102.846 94.4788 103.422 94.2955 103.844C94.1122 104.266 93.3303 104.542 91.9167 104.588H91.9233Z" fill="white"/>
<path d="M52.9369 114.638L53.0871 114.51L53.2373 114.38L53.2594 114.362L53.414 114.234L53.5244 114.15L53.5598 114.123L53.6525 114.057C53.6651 114.05 53.677 114.042 53.6879 114.033L53.7983 113.964H53.8093L53.9352 113.894L53.9949 113.865L54.0479 113.838L54.1119 113.81L54.1694 113.788L54.2378 113.761L54.2953 113.741L54.3682 113.719L54.4278 113.702L54.5051 113.682L54.5669 113.668L54.6531 113.653L54.7127 113.642L54.8165 113.629H54.8673H55.0308L42.7016 114.026H42.5381H42.4873C42.452 114.026 42.4167 114.026 42.3835 114.039H42.3239L42.2378 114.055L42.1759 114.07L42.0986 114.088L42.039 114.106L41.9661 114.128L41.9087 114.15L41.8402 114.174L41.7828 114.199L41.7187 114.227L41.6657 114.252L41.6171 114.276L41.4912 114.347H41.4802L41.3697 114.415H41.3587L41.3344 114.433L41.2416 114.499L41.2063 114.523L41.0958 114.609L40.9412 114.737L40.9191 114.755L40.7689 114.883L40.6188 115.011L40.5945 115.033L40.4465 115.155L40.4266 115.17L40.3382 115.237L40.3029 115.263L40.2234 115.318L40.1836 115.345L40.113 115.391L40.0754 115.413L39.9716 115.471H39.9605H39.9495L39.8589 115.515L39.8236 115.53L39.7507 115.559L39.7088 115.575L39.6403 115.599L39.5939 115.612L39.5232 115.632H39.4746L39.3973 115.647H39.3509H39.2626H39.2206C39.1742 115.647 39.1301 115.647 39.0837 115.647L51.4129 115.252H51.5498H51.5918H51.6801H51.7265L51.8038 115.239L51.8524 115.226L51.9231 115.208L51.9695 115.192L52.0379 115.17L52.0799 115.155L52.1528 115.126L52.1881 115.111L52.2787 115.067H52.2897L52.3935 115.009L52.4311 114.985L52.504 114.938H52.5172L52.5415 114.923L52.621 114.868L52.6564 114.841L52.7447 114.773L52.7602 114.76L52.9082 114.638H52.9369Z" fill="#EAF5F7"/>
<path d="M77.286 121.297C77.291 121.284 77.2969 121.27 77.3037 121.258L77.3236 121.209C77.3479 121.152 77.37 121.096 77.392 121.039C77.392 121.021 77.4075 121.004 77.4141 120.984C77.4208 120.964 77.4141 120.964 77.4252 120.953C77.4517 120.882 77.476 120.811 77.5003 120.732L77.5157 120.692C77.5467 120.599 77.5754 120.504 77.6019 120.409C77.6019 120.409 77.6019 120.392 77.6019 120.385C77.6173 120.326 77.635 120.266 77.6505 120.206L81.518 105.202C81.5334 105.149 81.5467 105.096 81.5577 105.041C81.5577 105.019 81.5577 104.997 81.5732 104.975C81.5887 104.904 81.6041 104.833 81.6174 104.754C81.6174 104.727 81.6306 104.699 81.635 104.67C81.6395 104.641 81.635 104.626 81.6461 104.602L81.6593 104.533C81.6726 104.44 81.688 104.35 81.6991 104.259C81.7101 104.164 81.7212 104.067 81.73 103.972V103.884C81.73 103.842 81.73 103.798 81.7411 103.756C81.7399 103.737 81.7399 103.719 81.7411 103.7C81.7411 103.63 81.7411 103.557 81.7411 103.479C81.7411 103.402 81.7411 103.396 81.7411 103.354C81.7411 103.272 81.7411 103.19 81.7411 103.108V103.011C81.7411 102.989 81.7411 102.967 81.7411 102.947C81.7411 102.872 81.7411 102.799 81.73 102.726V102.631C81.73 102.565 81.719 102.501 81.7123 102.437C81.7123 102.406 81.7123 102.375 81.7013 102.344C81.7013 102.267 81.6836 102.19 81.6726 102.123V102.073C81.6593 101.982 81.6439 101.889 81.6262 101.799L81.6129 101.724C81.5997 101.657 81.5864 101.591 81.571 101.525C81.571 101.494 81.5577 101.463 81.5489 101.432C81.5356 101.368 81.5202 101.306 81.5025 101.244C81.4848 101.182 81.4893 101.187 81.4804 101.16C81.4815 101.148 81.4815 101.135 81.4804 101.123C81.4804 101.096 81.465 101.07 81.4561 101.043C81.4362 100.973 81.4142 100.902 81.3921 100.822L81.3523 100.705C81.3302 100.637 81.3059 100.571 81.2816 100.507C81.2816 100.484 81.2662 100.46 81.2573 100.438C81.2485 100.416 81.2419 100.396 81.233 100.374L81.1933 100.277C81.1712 100.222 81.1491 100.169 81.1248 100.116C81.1005 100.063 81.0983 100.054 81.0829 100.023L81.063 99.9786C81.0343 99.9146 81.0055 99.8527 80.9746 99.7931C80.9466 99.7312 80.9157 99.6716 80.8819 99.6142C80.8768 99.6027 80.8709 99.5916 80.8642 99.5811C80.82 99.4971 80.7714 99.4154 80.7228 99.3337L80.7029 99.3005C80.6477 99.2122 80.5925 99.1261 80.5351 99.0421V99.0289L80.4821 98.9538L80.3738 98.8014L80.3584 98.7815L80.2899 98.6954L80.1994 98.5805L80.1817 98.5584L80.1066 98.4723C80.0779 98.4369 80.047 98.4038 80.0182 98.3707L80.0006 98.3486L79.9122 98.258C79.8857 98.2293 79.8592 98.2006 79.8305 98.1741L79.8172 98.1586L79.7134 98.0592L79.6361 97.9886L79.4727 97.8516L79.4241 97.8096C79.3578 97.7566 79.2916 97.7036 79.2209 97.6528L79.1657 97.6153L79.0133 97.5093C78.9801 97.4872 78.947 97.4695 78.9161 97.4474L78.799 97.3767H78.7858L78.6643 97.3083L78.5605 97.253H78.5472C78.4964 97.2265 78.4434 97.2045 78.3904 97.1802L78.3043 97.1404H78.291L48.9148 84.5506C48.8308 84.5152 48.7469 84.4843 48.663 84.4534H48.6409C48.5879 84.4335 48.5326 84.4158 48.4774 84.4004H48.4553L48.325 84.3628L48.2831 84.3518L48.2102 84.3341L48.0754 84.3054L48.0026 84.2899H47.9606L47.8921 84.2789L47.7662 84.2612L47.6624 84.2502L47.5387 84.2391H47.4923H47.4106H47.1522L34.823 84.6367H35.077H35.2051L35.3288 84.6478L35.4326 84.6588L35.5585 84.6765L35.6667 84.6941L35.7418 84.7074L35.8744 84.7383L35.9495 84.756L36.1217 84.8024H36.1438L36.3294 84.8664C36.4133 84.8951 36.4972 84.9283 36.5789 84.9636L65.9552 97.5534L66.0524 97.5998C66.1076 97.6241 66.1606 97.6484 66.2114 97.6749L66.3263 97.7368L66.4499 97.803L66.5781 97.8825L66.6774 97.9444C66.7327 97.9797 66.7857 98.0173 66.8387 98.0548L66.8939 98.0946C66.9646 98.1454 67.0353 98.2006 67.1015 98.2558L67.1523 98.3C67.2031 98.342 67.2539 98.3839 67.3025 98.4303L67.3798 98.501L67.4969 98.6136L67.5786 98.6998C67.614 98.7351 67.6493 98.7727 67.6824 98.8102C67.7156 98.8478 67.7443 98.8787 67.773 98.914L67.8658 99.02C67.8967 99.0576 67.9254 99.0973 67.9563 99.1371L68.0402 99.2431C68.0756 99.2917 68.1131 99.3425 68.1485 99.3955L68.2103 99.4817C68.2677 99.5678 68.323 99.6539 68.3782 99.7423C68.3847 99.756 68.3921 99.7693 68.4003 99.7821C68.4489 99.8616 68.4952 99.9455 68.5416 100.029C68.588 100.113 68.6167 100.169 68.6521 100.25C68.6896 100.325 68.7249 100.403 68.7603 100.471C68.7757 100.502 68.789 100.535 68.8023 100.566C68.8155 100.597 68.8486 100.672 68.8707 100.725L68.9105 100.825C68.9282 100.869 68.9436 100.911 68.9591 100.955C68.9745 100.999 69.0077 101.087 69.0298 101.154L69.0695 101.273C69.0916 101.344 69.1137 101.414 69.1336 101.494C69.1446 101.531 69.1579 101.571 69.1667 101.609C69.1755 101.646 69.1822 101.666 69.1888 101.693C69.2065 101.757 69.2219 101.819 69.2352 101.883C69.2352 101.911 69.2506 101.942 69.2573 101.973C69.2727 102.039 69.286 102.106 69.2992 102.172L69.3125 102.249C69.3301 102.34 69.3456 102.43 69.3589 102.523V102.572C69.3699 102.649 69.3787 102.726 69.3876 102.793C69.3876 102.823 69.3876 102.854 69.3986 102.885C69.4097 102.916 69.4097 103.016 69.4141 103.082C69.4141 103.113 69.4141 103.144 69.4141 103.177C69.4141 103.25 69.4141 103.323 69.4141 103.398C69.4141 103.42 69.4141 103.442 69.4141 103.464V103.559C69.4141 103.64 69.4141 103.722 69.4141 103.804C69.4141 103.846 69.4141 103.888 69.4141 103.93C69.4141 103.972 69.4141 104.074 69.4141 104.151L69.4008 104.332V104.423C69.4008 104.518 69.3809 104.615 69.3699 104.71C69.3589 104.803 69.3434 104.893 69.3301 104.984L69.3169 105.054C69.3169 105.105 69.297 105.156 69.2882 105.207C69.2793 105.258 69.2595 105.35 69.2418 105.428C69.2241 105.505 69.2087 105.578 69.1888 105.648L65.3367 120.602C65.3191 120.67 65.2992 120.739 65.2793 120.805C65.2594 120.871 65.2241 120.995 65.1932 121.088C65.1932 121.103 65.1821 121.118 65.1755 121.136C65.1512 121.207 65.1269 121.28 65.1004 121.357L65.0673 121.443L64.9988 121.611C64.9856 121.642 64.9745 121.671 64.9613 121.699C64.948 121.728 64.9127 121.808 64.8862 121.863C64.8597 121.918 64.8641 121.914 64.8508 121.94C64.8177 122.011 64.7823 122.079 64.7448 122.148V122.168C64.705 122.243 64.6631 122.318 64.6211 122.389L64.5813 122.453C64.5504 122.503 64.5195 122.556 64.4886 122.605L64.44 122.68L64.3428 122.821L64.2942 122.89C64.2523 122.95 64.2081 123.007 64.1639 123.062L64.1418 123.093L63.9762 123.292L63.9298 123.343C63.8834 123.396 63.8348 123.447 63.7884 123.497L63.742 123.544C63.6758 123.61 63.6095 123.674 63.5432 123.736L63.5057 123.769C63.4306 123.835 63.3533 123.902 63.2848 123.966L63.2694 123.979L63.1965 124.032L63.1081 124.098L63.033 124.151L62.9447 124.211C62.8828 124.253 62.8188 124.292 62.7547 124.33C62.7386 124.341 62.7216 124.35 62.7039 124.359C62.6553 124.387 62.6089 124.414 62.5604 124.438L62.4897 124.476L62.3616 124.538L62.2887 124.571L62.1539 124.628L62.0899 124.655L61.8977 124.723H61.8867L61.6835 124.785L61.6172 124.8L61.4759 124.836L61.3986 124.851L61.2616 124.876H61.1843L61.0385 124.893H60.9723C60.9016 124.893 60.8287 124.893 60.7514 124.906L73.0673 124.524L73.2882 124.511H73.3545L73.5002 124.496L73.5775 124.482L73.7145 124.458L73.7918 124.443L73.9332 124.41L73.9994 124.392C74.0679 124.374 74.1364 124.354 74.2026 124.332H74.2137C74.2777 124.312 74.3418 124.288 74.4058 124.264L74.4699 124.237L74.6046 124.18L74.6775 124.147L74.8056 124.085L74.8476 124.065L74.8763 124.049L75.0199 123.97L75.0707 123.939C75.1355 123.902 75.1995 123.862 75.2628 123.82L75.3423 123.765L75.4174 123.712L75.5058 123.645L75.5787 123.59H75.5897C75.6692 123.528 75.7465 123.462 75.8216 123.394L75.8459 123.374H75.8592L76.058 123.181L76.0734 123.166L76.1044 123.133C76.1529 123.082 76.1993 123.031 76.2457 122.978L76.2766 122.947L76.2921 122.927L76.4577 122.729C76.4629 122.72 76.4688 122.712 76.4754 122.704C76.5196 122.647 76.5638 122.59 76.6057 122.53L76.6256 122.506L76.6543 122.461L76.7515 122.32L76.778 122.28C76.778 122.28 76.7913 122.258 76.8001 122.247L76.8929 122.095L76.9238 122.046C76.9226 122.041 76.9226 122.036 76.9238 122.031C76.9658 121.958 77.0077 121.885 77.0475 121.81C77.0483 121.804 77.0483 121.798 77.0475 121.792C77.085 121.724 77.1204 121.653 77.1535 121.582V121.562L77.18 121.505L77.286 121.297Z" fill="#E2DDE3"/>
<path d="M65.9552 97.5048C68.6057 98.6423 70.059 102.267 69.1998 105.6L65.3368 120.602C64.4776 123.935 61.6305 125.715 58.9778 124.577L51.2715 121.264C48.0048 119.864 50.4918 116.847 45.2416 114.592C39.9915 112.336 41.531 117.09 37.3145 115.283L29.6082 111.97C26.9577 110.835 25.5021 107.21 26.3613 103.877L30.2178 88.8973C31.077 85.5643 33.924 83.7819 36.5745 84.9216L65.9552 97.5048Z" fill="#111539"/>
<path d="M69.2374 101.827C69.2374 101.858 69.2529 101.889 69.2595 101.92C69.2661 101.951 69.2595 101.953 69.2705 101.971L69.2838 102.037C69.2838 102.064 69.2948 102.092 69.3015 102.119V102.165C69.3015 102.165 69.3015 102.185 69.3015 102.196C69.3125 102.247 69.3191 102.3 69.328 102.353L69.3478 102.47V102.519L69.3611 102.616C69.3611 102.64 69.3611 102.667 69.3611 102.691V102.748C69.3622 102.764 69.3622 102.779 69.3611 102.795V102.841C69.3611 102.89 69.3611 102.938 69.3721 102.987C69.3732 103.004 69.3732 103.021 69.3721 103.038C69.3721 103.069 69.3721 103.1 69.3721 103.133C69.3721 103.166 69.3721 103.206 69.3721 103.241V103.263C69.3721 103.294 69.3721 103.323 69.3721 103.351C69.3721 103.38 69.3721 103.396 69.3721 103.418V103.574C69.3721 103.636 69.3721 103.696 69.3721 103.758C69.3721 103.82 69.3721 103.842 69.3721 103.884C69.3721 103.926 69.3721 104.027 69.3721 104.105L69.3589 104.286V104.376C69.3589 104.403 69.3589 104.431 69.3589 104.458L69.3456 104.568C69.3456 104.599 69.3456 104.632 69.3456 104.663C69.3346 104.756 69.3191 104.847 69.3059 104.937L69.2926 105.008C69.2926 105.059 69.2727 105.11 69.2639 105.16C69.2551 105.211 69.2352 105.304 69.2175 105.381C69.1999 105.454 69.1844 105.527 69.1645 105.602L65.3368 120.602C65.3191 120.67 65.2992 120.739 65.2793 120.805C65.2595 120.871 65.2241 120.995 65.1932 121.088C65.1932 121.103 65.1821 121.119 65.1755 121.136C65.1512 121.207 65.1269 121.28 65.1004 121.357L65.0673 121.443L64.9988 121.611C64.9856 121.642 64.9745 121.671 64.9613 121.699C64.948 121.728 64.9127 121.808 64.8862 121.863C64.8597 121.918 64.8641 121.914 64.8508 121.94C64.8177 122.011 64.7824 122.079 64.7448 122.148V122.168C64.7051 122.243 64.6631 122.318 64.6211 122.389L64.5814 122.453C64.5504 122.503 64.5195 122.556 64.4886 122.605L64.44 122.68L64.3428 122.821L64.2942 122.89C64.2523 122.95 64.2081 123.007 64.1639 123.062L64.1418 123.093L63.9762 123.292L63.9298 123.343C63.8834 123.396 63.8348 123.447 63.7884 123.497L63.742 123.544C63.6758 123.61 63.6095 123.674 63.5433 123.736L63.5057 123.767C63.4306 123.836 63.357 123.902 63.2848 123.966L63.2694 123.979L63.1965 124.032L63.1081 124.098L63.033 124.151L62.9447 124.211C62.8829 124.253 62.8188 124.292 62.7547 124.33C62.7386 124.341 62.7216 124.35 62.7039 124.359C62.6553 124.387 62.609 124.414 62.5604 124.438L62.4897 124.476L62.3616 124.538L62.2887 124.571L62.154 124.628L62.0899 124.655L61.8977 124.723H61.8867L61.6835 124.785L61.6172 124.8L61.4759 124.836L61.3986 124.851L61.2616 124.876H61.1843L61.0386 124.893H60.9723C60.9016 124.893 60.8287 124.893 60.7514 124.907L65.6504 124.75C67.307 124.284 68.7272 122.762 69.2904 120.58L73.2198 105.443C73.4637 104.337 73.5063 103.196 73.3457 102.075C72.9658 99.9433 71.7355 98.099 69.9751 97.3414L39.775 84.4181L34.823 84.5793H35.077H35.1499H35.2051L35.331 84.5904L35.4326 84.6014L35.5585 84.6191H35.5961L35.6667 84.6323H35.7109H35.7418L35.8081 84.6478L35.8744 84.6633L35.9495 84.6809L36.1217 84.7273H36.1394L36.3249 84.7914C36.4089 84.8201 36.4928 84.8532 36.5745 84.8886L65.9508 97.4784L66.0391 97.5203L66.1187 97.5579L66.196 97.5954L66.2755 97.6374L66.3108 97.6573L66.4345 97.7235L66.4809 97.7523L66.5626 97.8031L66.662 97.8649L66.6863 97.8804L66.7261 97.9091L66.8232 97.9753L66.8652 98.0041H66.8785C66.9491 98.0549 67.0198 98.1101 67.0861 98.1653L67.1369 98.2095L67.2274 98.2868L67.2871 98.3398L67.3644 98.4105L67.4814 98.5231L67.5632 98.6092C67.5985 98.6446 67.6339 98.6821 67.667 98.7197C67.7001 98.7572 67.7288 98.7882 67.7575 98.8235L67.8503 98.9295C67.8812 98.9671 67.9099 99.0068 67.9409 99.0466L68.0248 99.1526L68.0469 99.1835L68.0712 99.2167C68.0911 99.2454 68.1131 99.2741 68.133 99.305L68.1639 99.347L68.1927 99.3867C68.2479 99.4685 68.3009 99.5502 68.3517 99.6363V99.6474C68.3582 99.6611 68.3656 99.6743 68.3738 99.6871C68.4135 99.7512 68.4511 99.8174 68.4864 99.8837L68.5151 99.9345C68.5527 100.003 68.5902 100.074 68.6256 100.155C68.6631 100.23 68.6985 100.308 68.7338 100.376C68.7493 100.407 68.7625 100.44 68.7758 100.471C68.789 100.502 68.8222 100.577 68.8442 100.63L68.8663 100.69L68.884 100.73C68.9017 100.774 68.9171 100.816 68.9326 100.86C68.9481 100.904 68.9812 100.992 69.0033 101.059L69.043 101.178L69.0828 101.304L69.096 101.355C69.1004 101.366 69.1041 101.378 69.1071 101.39C69.1181 101.428 69.1314 101.467 69.1402 101.505C69.149 101.542 69.1557 101.562 69.1623 101.589C69.2087 101.699 69.2241 101.761 69.2374 101.827Z" fill="white"/>
<path d="M95.4573 103.104C94.7594 102.415 93.39 101.598 91.3866 100.741L76.3274 94.2866L76.1529 94.6952L90.3375 100.774C91.2879 101.163 92.2015 101.637 93.0675 102.19C94.057 102.852 94.4744 103.429 94.2911 103.85C94.1078 104.272 93.3303 104.542 91.9167 104.588L69.2771 105.269C69.255 105.379 69.2285 105.489 69.1998 105.6L69.1313 105.869L93.2066 105.14C94.2911 105.107 95.0531 104.957 95.5037 104.716C96.1818 104.356 96.1553 103.793 95.4573 103.104Z" fill="#EAF5F7"/>
<path d="M93.1359 115.214C93.1359 115.214 93.1359 115.199 93.1359 115.19V115.164L95.9609 104.206L95.9454 104.255C95.9416 104.267 95.9365 104.279 95.93 104.29C95.93 104.303 95.93 104.314 95.9145 104.328L95.8946 104.361C95.8946 104.374 95.8792 104.385 95.8726 104.396L95.8505 104.427L95.8217 104.462L95.7975 104.489L95.7599 104.526L95.7356 104.548C95.719 104.564 95.7013 104.579 95.6826 104.593L95.6649 104.606C95.6397 104.626 95.6131 104.644 95.5854 104.661L95.5611 104.674C95.5379 104.69 95.5135 104.704 95.4882 104.716L95.4043 104.758L95.3756 104.771L95.3137 104.798L95.2629 104.82L95.2121 104.838L95.1547 104.858L95.1017 104.878L95.0399 104.895L94.9846 104.913L94.9184 104.931L94.8587 104.946L94.7836 104.964L94.724 104.977L94.6423 104.992L94.5826 105.006L94.4634 105.025H94.4325L94.2734 105.05H94.2359L94.1011 105.065H94.0371H93.9222H93.8516H93.7234H93.6461H93.5158H93.4407H93.1911L68.8199 105.803L66.0104 116.847L90.3838 116.107H90.6312H90.7085H90.8388H90.9161H91.0442H91.0928H91.1127H91.2276H91.2938L91.4286 116.089H91.4617L91.6229 116.065H91.6494L91.7731 116.043H91.8283L91.9101 116.025L91.9697 116.012L92.0448 115.994L92.0956 115.981L92.1597 115.963L92.2171 115.946L92.2789 115.928L92.3231 115.912L92.3783 115.893L92.4291 115.873L92.4821 115.853L92.5329 115.831L92.5639 115.817L92.6478 115.775L92.6677 115.764L92.7207 115.733C92.7279 115.727 92.7361 115.722 92.745 115.718L92.8223 115.665L92.8377 115.652L92.893 115.608L92.915 115.586L92.9482 115.555L92.9725 115.526C92.9725 115.526 92.9924 115.504 93.0012 115.491L93.0211 115.462C93.0277 115.454 93.0336 115.446 93.0387 115.438L93.0564 115.402L93.0741 115.367L93.1359 115.214Z" fill="#1E266D"/>
<path d="M52.3449 99.464L43.4812 95.665C43.2083 95.5478 42.993 95.327 42.8828 95.0511C42.7726 94.7753 42.7766 94.4669 42.8937 94.1939C43.0109 93.921 43.2317 93.7057 43.5075 93.5955C43.7834 93.4853 44.0918 93.4893 44.3647 93.6064L53.2284 97.4099C53.3636 97.4679 53.486 97.5519 53.5887 97.6573C53.6913 97.7626 53.7723 97.8871 53.8268 98.0237C53.8814 98.1603 53.9085 98.3063 53.9066 98.4534C53.9048 98.6004 53.8739 98.7457 53.8159 98.8809C53.7579 99.016 53.6738 99.1385 53.5685 99.2411C53.4632 99.3438 53.3387 99.4247 53.2021 99.4793C53.0655 99.5338 52.9195 99.561 52.7724 99.5591C52.6253 99.5572 52.4801 99.5264 52.3449 99.4684V99.464Z" fill="#3751FF"/>
<path d="M124.531 76.3738L106.592 80.6234C106.297 80.6937 106.042 80.8781 105.883 81.136C105.724 81.394 105.674 81.7046 105.743 81.9995L109.991 99.9433C110.061 100.238 110.246 100.493 110.504 100.652C110.761 100.811 111.072 100.861 111.367 100.791L129.311 96.544C129.606 96.4737 129.861 96.2895 130.02 96.0316C130.179 95.7737 130.23 95.4632 130.161 95.168L125.912 77.222C125.877 77.0755 125.813 76.9374 125.725 76.8155C125.637 76.6936 125.526 76.5902 125.397 76.5115C125.269 76.4327 125.127 76.38 124.978 76.3563C124.829 76.3327 124.677 76.3387 124.531 76.3738Z" fill="#3751FF"/>
<path d="M124.18 97.7566L122.333 89.9575L124.962 89.3347L124.635 86.1872L121.611 86.9028L121.149 84.9592C120.942 84.0757 121.043 83.413 122.309 83.1193L123.91 82.7394L123.265 80.016C122.466 80.1192 121.672 80.2667 120.889 80.4577C118.565 81.0077 117.311 82.8012 117.927 85.4075L118.459 87.6538L115.84 88.2745L116.562 91.3269L119.181 90.7085L121.028 98.5142L124.18 97.7566Z" fill="white"/>
<path d="M185.318 141.068C185.373 140.445 185.265 139.818 185.003 139.25C184.742 138.682 184.336 138.193 183.827 137.83C181.941 136.48 173.543 133.379 173.543 133.379C173.543 133.379 165.15 130.287 162.846 130.055C162.221 130.008 161.593 130.123 161.025 130.388C160.456 130.652 159.965 131.059 159.599 131.568C158.274 133.463 156.664 137.814 156.664 137.814C156.664 137.814 155.049 142.19 154.835 144.469C154.778 145.092 154.886 145.719 155.147 146.287C155.409 146.855 155.814 147.345 156.324 147.707C158.234 149.066 166.607 152.158 166.607 152.158C166.607 152.158 175.001 155.25 177.304 155.471C177.927 155.528 178.554 155.42 179.122 155.159C179.69 154.897 180.18 154.492 180.542 153.982C181.868 152.087 183.478 147.734 183.478 147.734C183.478 147.734 185.117 143.378 185.318 141.068ZM165.916 145.803L168.887 137.761L174.384 144.361L165.916 145.803Z" fill="#3751FF"/>
<path d="M119.835 182.625C130.327 182.625 138.832 181.014 138.832 179.027C138.832 177.04 130.327 175.429 119.835 175.429C109.343 175.429 100.838 177.04 100.838 179.027C100.838 181.014 109.343 182.625 119.835 182.625Z" fill="#DBD9DB"/>
<path d="M130.715 196.408C123.412 198.816 115.529 198.816 108.226 196.408V183.405H130.715V196.408Z" fill="#0F1128"/>
</g>
<defs>
<clipPath id="clip0">
<rect width="233" height="198.215" fill="white"/>
</clipPath>
</defs>
</svg>
