<svg width="505" height="97" viewBox="0 0 505 97" fill="none" xmlns="http://www.w3.org/2000/svg">
<mask id="mask0" mask-type="alpha" maskUnits="userSpaceOnUse" x="1" y="19" width="134" height="53">
<path d="M36.288 25.572V34.34H24.384V70.5H13.44V34.34H1.536V25.572H36.288ZM39.6045 52.58C39.6045 48.9107 40.2872 45.6893 41.6525 42.916C43.0605 40.1427 44.9592 38.0093 47.3485 36.516C49.7378 35.0227 52.4045 34.276 55.3485 34.276C57.8658 34.276 60.0632 34.788 61.9405 35.812C63.8605 36.836 65.3325 38.18 66.3565 39.844V34.788H77.3005V70.5H66.3565V65.444C65.2898 67.108 63.7965 68.452 61.8765 69.476C59.9992 70.5 57.8018 71.012 55.2845 71.012C52.3832 71.012 49.7378 70.2653 47.3485 68.772C44.9592 67.236 43.0605 65.0813 41.6525 62.308C40.2872 59.492 39.6045 56.2493 39.6045 52.58ZM66.3565 52.644C66.3565 49.9133 65.5885 47.7587 64.0525 46.18C62.5592 44.6013 60.7245 43.812 58.5485 43.812C56.3725 43.812 54.5165 44.6013 52.9805 46.18C51.4872 47.716 50.7405 49.8493 50.7405 52.58C50.7405 55.3107 51.4872 57.4867 52.9805 59.108C54.5165 60.6867 56.3725 61.476 58.5485 61.476C60.7245 61.476 62.5592 60.6867 64.0525 59.108C65.5885 57.5293 66.3565 55.3747 66.3565 52.644ZM106.338 70.5L99.49 60.58L93.73 70.5H81.89L93.666 52.26L81.57 34.788H93.858L100.706 44.644L106.466 34.788H118.306L106.338 52.772L118.626 70.5H106.338ZM128.347 31.076C126.427 31.076 124.848 30.5213 123.611 29.412C122.416 28.26 121.819 26.852 121.819 25.188C121.819 23.4813 122.416 22.0733 123.611 20.964C124.848 19.812 126.427 19.236 128.347 19.236C130.224 19.236 131.76 19.812 132.955 20.964C134.192 22.0733 134.811 23.4813 134.811 25.188C134.811 26.852 134.192 28.26 132.955 29.412C131.76 30.5213 130.224 31.076 128.347 31.076ZM133.787 34.788V70.5H122.843V34.788H133.787Z" fill="white"/>
</mask>
<g mask="url(#mask0)">
<path d="M134 -14.2667L-117.447 -16.5L-142.109 -8.12525L-160 66.6891C-67.6414 73.575 114.681 108.668 122 75C124.5 63.5 134 9.5 134 -14.2667Z" fill="#FF3838"/>
</g>
</svg>
