<svg width="1039" height="875" viewBox="0 0 1039 875" fill="none" xmlns="http://www.w3.org/2000/svg">
<g clip-path="url(#clip0)">
<rect width="1039" height="875" fill="white"/>
<path d="M490 181C565.377 -154.5 406.167 -312.333 362.5 -344.5L387 -365H1207.5L1246.5 889.5V1415L493.5 1476.5C490 1473.17 442.1 1419 278.5 1229C74.0003 991.5 673.5 1321 835 1077.5C964.2 882.7 833.167 710 751.5 648C661 599 435.293 424.5 490 181Z" fill="#FF3838"/>
<path d="M811 714.5V690L830 695L850.5 689.5L973.5 723.5L1029 776.5L1036.5 823L1013 851.5C972.667 858.167 894.5 900 878.5 828C870.596 792.43 828 725.5 811 714.5Z" fill="#FF3838"/>
<rect x="1010" y="526" width="29" height="604" fill="#FF3838"/>
<rect x="954" y="135" width="71" height="649" fill="#FF3838"/>
</g>
<defs>
<clipPath id="clip0">
<rect width="1039" height="875" fill="white"/>
</clipPath>
</defs>
</svg>
