<svg width="1039" height="875" viewBox="0 0 1039 875" fill="none" xmlns="http://www.w3.org/2000/svg">
<g clip-path="url(#clip0)">
<rect width="1039" height="875" fill="white"/>
<path d="M436 170C511.377 -165.5 352.167 -323.333 308.5 -355.5L333 -376H1153.5L1192.5 878.5V1404L439.5 1465.5C436 1462.17 388.1 1408 224.5 1218C20.0003 980.5 619.5 1310 781 1066.5C910.2 871.7 779.167 699 697.5 637C607 588 381.293 413.5 436 170Z" fill="#9069FF"/>
<path d="M770 705V672.5V669.5L790.5 664L913.5 698L969 751L976.5 797.5L953 826C912.667 832.667 829.3 837.3 818.5 802.5C807.7 767.7 781.667 723 770 705Z" fill="#9069FF"/>
</g>
<defs>
<clipPath id="clip0">
<rect width="1039" height="875" fill="white"/>
</clipPath>
</defs>
</svg>
